<svg width="24" height="24" viewBox="0 0 24 24" xmlns="http://www.w3.org/2000/svg" xmlns:xlink="http://www.w3.org/1999/xlink" overflow="hidden"><g id="Iconly/Light-Outline/3-User" fill="none" fill-rule="evenodd"><g id="3-User" fill="#000000" transform="translate(1 4)"><path d="M10.8867 10.414 10.9996 10.414 10.9996 10.414 11.2522 10.4149C13.1828 10.4276 17.5947 10.6226 17.5947 13.613 17.5947 16.5837 13.3366 16.7775 11.2823 16.7901L10.5212 16.7901C8.59048 16.7774 4.1777 16.5826 4.1777 13.596 4.1777 10.6215 8.59048 10.4275 10.5212 10.4149L10.7738 10.414C10.813 10.414 10.8506 10.414 10.8867 10.414ZM10.8867 11.914C8.5107 11.914 5.6777 12.206 5.6777 13.596 5.6777 14.9545 8.3416 15.2722 10.6695 15.2902L10.8867 15.291C13.2627 15.291 16.0947 15 16.0947 13.613 16.0947 12.209 13.2627 11.914 10.8867 11.914ZM18.8403 10.0082C21.2633 10.3712 21.7723 11.5092 21.7723 12.4002 21.7723 12.9442 21.5583 13.9372 20.1283 14.4822 20.0403 14.5152 19.9503 14.5312 19.8613 14.5312 19.5593 14.5312 19.2743 14.3472 19.1603 14.0482 19.0123 13.6612 19.2073 13.2272 19.5943 13.0802 20.2723 12.8222 20.2723 12.5372 20.2723 12.4002 20.2723 11.9622 19.7153 11.6562 18.6173 11.4922 18.2083 11.4302 17.9253 11.0492 17.9863 10.6382 18.0473 10.2282 18.4273 9.9552 18.8403 10.0082ZM3.7861 10.6382C3.8471 11.0492 3.5641 11.4302 3.1551 11.4922 2.0571 11.6562 1.5001 11.9622 1.5001 12.4002 1.5001 12.5372 1.5001 12.8212 2.1791 13.0802 2.5661 13.2272 2.7611 13.6612 2.6131 14.0482 2.4991 14.3472 2.2141 14.5312 1.9121 14.5312 1.8231 14.5312 1.7331 14.5152 1.6451 14.4822 0.2141 13.9362 0.0001 12.9432 0.0001 12.4002 0.0001 11.5102 0.5091 10.3712 2.9331 10.0082 3.3461 9.9562 3.7241 10.2282 3.7861 10.6382ZM10.8867-8.08242e-14C13.4067-8.08242e-14 15.4557 2.05 15.4557 4.569 15.4557 7.088 13.4067 9.138 10.8867 9.138L10.8597 9.138C9.6397 9.134 8.4967 8.656 7.6407 7.792 6.7827 6.929 6.3137 5.783 6.31866 4.566 6.31866 2.05 8.3677-8.08242e-14 10.8867-8.08242e-14ZM10.8867 1.5C9.1947 1.5 7.81868 2.877 7.81868 4.569 7.8157 5.389 8.1297 6.156 8.7047 6.735 9.2797 7.314 10.0457 7.635 10.8617 7.638L10.8867 8.388 10.8867 7.638C12.5787 7.638 13.9557 6.262 13.9557 4.569 13.9557 2.877 12.5787 1.5 10.8867 1.5ZM17.0757 0.9795C18.8337 1.2685 20.1107 2.7725 20.1107 4.5555 20.1067 6.3505 18.7657 7.8905 16.9907 8.1395 16.9557 8.1445 16.9207 8.1465 16.8867 8.1465 16.5187 8.1465 16.1977 7.8755 16.1447 7.5005 16.0877 7.0895 16.3727 6.7105 16.7837 6.6535 17.8237 6.5075 18.6087 5.6055 18.6107 4.5535 18.6107 3.5105 17.8627 2.6285 16.8317 2.4595 16.4237 2.3925 16.1467 2.0065 16.2137 1.5975 16.2817 1.1885 16.6647 0.9145 17.0757 0.9795ZM5.5597 1.5975C5.6267 2.0065 5.3497 2.3925 4.9417 2.4595 3.9107 2.6285 3.1627 3.5105 3.1627 4.5555 3.1647 5.6055 3.9497 6.5085 4.9887 6.6535 5.3997 6.7105 5.6847 7.0895 5.6277 7.5005 5.5747 7.8755 5.2537 8.1465 4.8857 8.1465 4.8517 8.1465 4.8167 8.1445 4.7817 8.1395 3.0067 7.8905 1.6667 6.3505 1.6627 4.5575 1.6627 2.7725 2.9397 1.2685 4.6977 0.9795 5.1187 0.9135 5.4917 1.1905 5.5597 1.5975Z" id="Combined-Shape" stroke-width="0.64" fill="#0A00A6"/></g></g></svg>