<svg width="24" height="24" viewBox="0 0 24 24" xmlns="http://www.w3.org/2000/svg" xmlns:xlink="http://www.w3.org/1999/xlink" fill="none" overflow="hidden"><path d="M12 8C13.1046 8 14 8.89543 14 10L14 14C14 15.1046 13.1046 16 12 16L9 16C7.89543 16 7 15.1046 7 14L7 10C7 8.89543 7.89543 8 9 8L12 8ZM15 13.162 15 10.838 16.734 9.196C17.0346 8.91102 17.5093 8.92368 17.7943 9.22428 17.9265 9.36379 18.0002 9.54876 18 9.741L18 14.259C18.0004 14.6732 17.6649 15.0093 17.2507 15.0097 17.0585 15.0099 16.8735 14.9363 16.734 14.804L15 13.162ZM22 12C22 6.477 17.523 2 12 2 6.477 2 2 6.477 2 12 1.99792 13.5979 2.38035 15.1729 3.115 16.592L2.047 20.415C1.86143 21.0799 2.25004 21.7694 2.91499 21.955 3.13479 22.0163 3.36719 22.0163 3.587 21.955L7.413 20.888C8.83082 21.6208 10.404 22.0022 12 22 17.523 22 22 17.523 22 12ZM3.5 12C3.50136 7.30558 7.30804 3.5011 12.0025 3.50246 16.6969 3.50382 20.5014 7.3105 20.5 12.0049 20.4986 16.6993 16.692 20.5038 11.9975 20.5025 10.5519 20.502 9.13024 20.1329 7.867 19.43L7.597 19.28 3.611 20.391 4.724 16.407 4.573 16.137C3.86708 14.8726 3.49762 13.4481 3.5 12Z" fill="#8FA6FF"/></svg>