<svg width="27" height="30" xmlns="http://www.w3.org/2000/svg" xmlns:xlink="http://www.w3.org/1999/xlink" overflow="hidden"><defs><clipPath id="clip0"><rect x="986" y="273" width="27" height="30"/></clipPath><clipPath id="clip1"><rect x="987" y="273" width="25" height="29"/></clipPath><clipPath id="clip2"><rect x="987" y="273" width="25" height="29"/></clipPath></defs><g clip-path="url(#clip0)" transform="translate(-986 -273)"><g clip-path="url(#clip1)"><g clip-path="url(#clip2)"><path d="M22.2731 13.7534C25.1019 13.7534 27.3817 10.6333 27.3817 8.04578 27.3232 6.74508 26.754 5.51994 25.7973 4.63658 24.8408 3.75322 23.5742 3.28302 22.273 3.32808 20.9696 3.29395 19.7048 3.77099 18.7486 4.6573 17.7923 5.54334 17.221 6.76848 17.1561 8.07061 17.1561 10.6332 19.4442 13.7533 22.273 13.7533ZM22.2731 4.99215C23.1372 4.94656 23.9845 5.24492 24.6298 5.8214 25.275 6.39813 25.6662 7.20666 25.7177 8.07055 25.7177 9.85119 24.0952 12.1143 22.2731 12.1143 20.4511 12.1143 18.8203 9.85119 18.8203 8.07055 18.8842 7.20984 19.2801 6.40767 19.9243 5.83332 20.5685 5.25898 21.4107 4.95726 22.2731 4.99215ZM31.8249 22.8809C31.7123 24.4767 30.9406 25.9537 29.695 26.9577 27.8 28.7825 25.3013 29.8482 22.6723 29.953 22.2128 29.953 21.8403 29.5805 21.8403 29.1211 21.8403 28.6616 22.2128 28.2889 22.6723 28.2889 24.8817 28.2133 26.9855 27.3246 28.5797 25.7928 29.4819 25.0784 30.053 24.0265 30.1605 22.8809 30.0513 21.7277 29.4665 20.6724 28.5463 19.9687 27.3849 18.8423 25.9398 18.0518 24.3649 17.6813 22.79 17.3106 21.1442 17.3737 19.6022 17.8636 19.1719 17.9865 18.7217 17.7471 18.5828 17.3218 18.4441 16.8964 18.6666 16.4374 19.0864 16.2829 20.9153 15.704 22.8668 15.6306 24.7342 16.0699 26.6017 16.5093 28.3155 17.4454 29.6947 18.779 30.9481 19.7874 31.7208 21.2755 31.8246 22.8809ZM17.6803 23.2967 17.6803 22.0487C17.6803 21.0083 17.1253 20.047 16.2243 19.5268 15.3234 19.0066 14.2133 19.0066 13.3122 19.5268 12.4112 20.047 11.8562 21.0083 11.8562 22.0487L11.8562 23.2967C11.4148 23.2967 10.9916 23.4722 10.6796 23.7842 10.3676 24.0963 10.1921 24.5194 10.1921 24.9608L10.1921 29.121C10.1921 29.5622 10.3676 29.9856 10.6796 30.2976 10.9916 30.6096 11.4148 30.7849 11.8562 30.7849L17.6803 30.7849C18.1218 30.7849 18.5449 30.6096 18.8571 30.2976 19.1692 29.9856 19.3444 29.5622 19.3444 29.121L19.3444 24.9608C19.3444 24.5194 19.1692 24.0963 18.8571 23.7842 18.5449 23.4722 18.1217 23.2967 17.6803 23.2967ZM13.5201 22.0487 13.5203 22.0487C13.5203 21.6029 13.7583 21.1909 14.1444 20.9679 14.5305 20.7451 15.0063 20.7451 15.3924 20.9679 15.7785 21.1909 16.0164 21.6029 16.0164 22.0487L16.0164 23.2967 13.5203 23.2967ZM11.8562 29.1213 11.8562 24.9611 17.6803 24.9611 17.6803 29.1213Z" fill="#8FA6FF" transform="matrix(1.00507 0 0 1 978.708 270.392)"/></g></g></g></svg>