<svg width="24" height="24" viewBox="0 0 24 24" xmlns="http://www.w3.org/2000/svg" xmlns:xlink="http://www.w3.org/1999/xlink" fill="none" overflow="hidden"><path d="M20.5 10.5C20.5 5.80558 16.6944 2 12 2 7.30558 2 3.5 5.80558 3.5 10.5 3.5 15.1944 7.30558 19 12 19 16.6944 19 20.5 15.1944 20.5 10.5ZM13.471 15.872C12.805 17.287 12.182 17.5 12 17.5 11.818 17.5 11.195 17.287 10.529 15.872 10.222 15.219 9.963 14.415 9.782 13.5L14.218 13.5C14.037 14.415 13.778 15.22 13.471 15.872ZM9.5 10.5C9.5 9.983 9.524 9.481 9.568 9L14.432 9C14.5235 9.99791 14.5235 11.0021 14.432 12L9.568 12C9.52248 11.5013 9.49979 11.0008 9.5 10.5ZM14.57 17.013C15.091 16.083 15.5 14.877 15.744 13.5L18.326 13.5C17.563 15.1037 16.221 16.3588 14.57 17.013ZM15.938 12C16.0216 11.0017 16.0216 9.99825 15.938 9L18.838 9C19.054 9.98834 19.054 11.0117 18.838 12L15.938 12ZM5.16 12C4.94402 11.0117 4.94402 9.98834 5.16 9L8.061 9C7.97743 9.99825 7.97743 11.0017 8.061 12L5.161 12ZM8.255 13.5C8.5 14.877 8.908 16.084 9.429 17.013 7.77834 16.3586 6.43672 15.1035 5.674 13.5L8.256 13.5ZM14.217 7.5 9.782 7.5C9.963 6.585 10.222 5.78 10.529 5.128 11.195 3.713 11.818 3.5 12 3.5 12.182 3.5 12.805 3.713 13.471 5.128 13.778 5.781 14.037 6.585 14.218 7.5ZM18.325 7.5 15.743 7.5C15.498 6.123 15.09 4.916 14.569 3.987 16.2204 4.64094 17.5628 5.89616 18.326 7.5ZM8.255 7.5 5.674 7.5C6.43696 5.89634 7.77897 4.64115 9.43 3.987 8.909 4.917 8.5 6.123 8.256 7.5ZM4 16 4.253 16C4.6406 16.545 5.08436 17.0477 5.577 17.5L4.57 17.5 3.737 20.5 20.263 20.5 19.43 17.5 18.423 17.5C18.9157 17.0478 19.3594 16.545 19.747 16L20 16C20.3372 15.9999 20.6331 16.225 20.723 16.55L21.973 21.05C22.0835 21.4492 21.8494 21.8624 21.4502 21.9728 21.385 21.9909 21.3176 22 21.25 22L2.75 22C2.33579 22.0001 1.99993 21.6644 1.99984 21.2502 1.99983 21.1825 2.00896 21.1152 2.027 21.05L3.277 16.55C3.36693 16.225 3.66275 15.9999 4 16Z" fill="#8FA6FF"/></svg>