<svg width="24" height="24" viewBox="0 0 24 24" xmlns="http://www.w3.org/2000/svg" xmlns:xlink="http://www.w3.org/1999/xlink" fill="none" overflow="hidden"><path d="M12 2C17.524 2 22.002 6.478 22.002 12.001 22.002 12.534 21.96 13.057 21.88 13.568 21.8063 13.6021 21.7355 13.6419 21.668 13.687L20.708 14.327C20.6021 14.1282 20.4699 13.9445 20.315 13.781 20.5812 12.5328 20.5642 11.2407 20.265 10L16.907 10C17.003 10.997 17.0271 11.9996 16.979 13L15.476 13C15.5276 11.9995 15.5012 10.9964 15.397 10L8.605 10C8.429 11.6656 8.4744 13.3473 8.74 15.001L11.052 15.001C11.019 15.162 11.002 15.329 11.002 15.501L11.002 16.501 9.062 16.501C9.522 18.205 10.222 19.498 11.001 20.111L11.001 21.501C11.001 21.656 11.015 21.809 11.043 21.957 5.969 21.474 2 17.2 2 12 2 6.478 6.478 2 12 2ZM7.51 16.501 4.786 16.501C5.75161 18.0456 7.18627 19.2406 8.88 19.911 8.358 19.091 7.927 18.065 7.61 16.896L7.508 16.501ZM7.095 10.001 3.737 10.001 3.732 10.018C3.57733 10.6673 3.49947 11.3325 3.5 12 3.5 13.056 3.692 14.067 4.044 15L7.217 15C7.07058 14.0067 6.99805 13.004 7 12 7 11.316 7.032 10.647 7.095 10ZM8.882 4.091 8.859 4.099C6.81236 4.91613 5.16138 6.49364 4.252 8.501L7.299 8.501C7.613 6.749 8.159 5.223 8.882 4.091ZM12.001 3.5 11.885 3.505C10.62 3.621 9.397 5.623 8.83 8.501L15.172 8.501C14.606 5.631 13.389 3.632 12.127 3.506L12.001 3.5ZM15.121 4.09 15.227 4.265C15.897 5.377 16.405 6.837 16.702 8.501L19.75 8.501C18.8821 6.58526 17.3373 5.05753 15.412 4.211L15.121 4.091ZM12 15.5C12 14.6716 12.6716 14 13.5 14L18.5 14C19.3284 14 20 14.6716 20 15.5L20 16 22.222 14.519C22.4519 14.366 22.7623 14.4284 22.9153 14.6583 22.9698 14.7402 22.9989 14.8365 22.999 14.935L22.999 22.065C22.9994 22.3411 22.7759 22.5653 22.4997 22.5657 22.4009 22.5659 22.3043 22.5367 22.222 22.482L20 21 20 21.5C20 22.3284 19.3284 23 18.5 23L13.5 23C12.6716 23 12 22.3284 12 21.5L12 15.5Z" fill="#8FA6FF"/></svg>