<svg width="33" height="30" xmlns="http://www.w3.org/2000/svg" xmlns:xlink="http://www.w3.org/1999/xlink" overflow="hidden"><defs><clipPath id="clip0"><rect x="818" y="122" width="33" height="30"/></clipPath><clipPath id="clip1"><rect x="819" y="122" width="32" height="29"/></clipPath><clipPath id="clip2"><rect x="819" y="122" width="32" height="29"/></clipPath></defs><g clip-path="url(#clip0)" transform="translate(-818 -122)"><g clip-path="url(#clip1)"><g clip-path="url(#clip2)"><path d="M36.6229 7.73357C36.3377 7.56708 36.0133 7.47933 35.683 7.47933 35.3527 7.47933 35.0283 7.56708 34.7431 7.73357L32.4016 9.08597 32.4016 7.1883C32.4016 6.35416 32.0703 5.5541 31.4804 4.96445 30.8907 4.37455 30.0907 4.04326 29.2565 4.04326L14.5445 4.04326C13.7106 4.04326 12.9105 4.37453 12.3206 4.96445 11.7307 5.55411 11.3994 6.35416 11.3994 7.1883L11.3994 8.38687 10.1484 8.38687C9.3143 8.38687 8.51423 8.71838 7.92434 9.30806 7.33468 9.89796 7.00315 10.698 7.00315 11.5322L7.00315 24.3959C7.00315 25.23 7.33466 26.0298 7.92434 26.6197 8.51424 27.2096 9.31424 27.5409 10.1484 27.5409L15.8549 27.5409 19.8632 31.2487C20.0648 31.4357 20.3573 31.4871 20.6106 31.3801 20.8641 31.2731 21.0311 31.0274 21.0375 30.7524L21.0375 27.5479 23.0048 27.5479C23.839 27.5479 24.639 27.2164 25.2287 26.6267 25.8186 26.0368 26.1499 25.2368 26.1499 24.4026L26.1499 23.197 29.2495 23.197C30.0837 23.197 30.8837 22.8657 31.4736 22.2758 32.0633 21.6862 32.3948 20.8861 32.3948 20.052L32.3948 17.4311 34.7362 18.78C35.1199 19.0031 35.5701 19.0837 36.0074 19.0072 36.4449 18.9307 36.841 18.7023 37.1265 18.3622 37.4117 18.0219 37.5677 17.5919 37.5667 17.148L37.5667 9.36204C37.5675 9.0315 37.4807 8.70656 37.3149 8.42039 37.1492 8.13446 36.9105 7.89728 36.6231 7.73371ZM24.7589 24.3957C24.7589 24.8591 24.5746 25.3035 24.247 25.6311 23.9194 25.9587 23.475 26.143 23.0116 26.143L20.3383 26.143C19.9522 26.143 19.6392 26.4558 19.6392 26.8419L19.6392 29.1308 16.6024 26.3351C16.474 26.2166 16.3055 26.1503 16.1308 26.1498L10.1481 26.1498C9.68475 26.1498 9.24012 25.9658 8.91251 25.6382 8.58489 25.3106 8.40085 24.8659 8.40085 24.4025L8.40085 11.532C8.40085 11.0686 8.58489 10.6242 8.91251 10.2963 9.24012 9.96872 9.68474 9.78469 10.1481 9.78469L11.3921 9.78469 11.3921 20.0443C11.3921 20.8785 11.7236 21.6785 12.3133 22.2684 12.9032 22.8581 13.7032 23.1896 14.5374 23.1896L24.7589 23.1896ZM13.5483 15.8584C13.5483 15.4877 13.6955 15.132 13.9575 14.87 14.2198 14.6079 14.5752 14.4604 14.946 14.4604 15.3168 14.4604 15.6722 14.6079 15.9345 14.87 16.1965 15.132 16.3437 15.4876 16.3437 15.8584 16.3437 16.2292 16.1965 16.5846 15.9345 16.8469 15.6722 17.1089 15.3168 17.2561 14.946 17.2561 14.5752 17.2561 14.2198 17.1089 13.9575 16.8469 13.6955 16.5846 13.5483 16.2292 13.5483 15.8584ZM17.3434 15.8584C17.3434 15.4877 17.4906 15.132 17.7526 14.87 18.0149 14.6079 18.3703 14.4604 18.7411 14.4604 19.1119 14.4604 19.4673 14.6079 19.7295 14.87 19.9916 15.132 20.1388 15.4876 20.1388 15.8584 20.1388 16.2292 19.9916 16.5846 19.7295 16.8469 19.4673 17.1089 19.1119 17.2561 18.7411 17.2561 18.3703 17.2561 18.0149 17.1089 17.7526 16.8469 17.4906 16.5846 17.3434 16.2292 17.3434 15.8584ZM21.1419 15.8584C21.1419 15.4877 21.2891 15.132 21.5511 14.87 21.8134 14.6079 22.1688 14.4604 22.5396 14.4604 22.9104 14.4604 23.266 14.6079 23.5281 14.87 23.7901 15.132 23.9376 15.4876 23.9376 15.8584 23.9376 16.2292 23.7901 16.5846 23.5281 16.8469 23.266 17.1089 22.9104 17.2561 22.5396 17.2561 22.1688 17.2561 21.8134 17.1089 21.5511 16.8469 21.2891 16.5846 21.1419 16.2292 21.1419 15.8584ZM36.1685 17.1479C36.1689 17.3205 36.0773 17.4802 35.9279 17.5667 35.7787 17.6532 35.5944 17.6535 35.445 17.5672L32.0553 15.6173C31.839 15.4923 31.5726 15.4923 31.3564 15.6173 31.1404 15.7419 31.0071 15.9723 31.0068 16.2219L31.0068 20.0448C31.0068 20.5082 30.8228 20.9528 30.4952 21.2804 30.1676 21.608 29.723 21.7921 29.2596 21.7921L26.1565 21.7921 26.1565 11.5324C26.1565 10.6983 25.8252 9.89823 25.2353 9.30834 24.6454 8.71868 23.8454 8.38715 23.0114 8.38715L12.7898 8.38715 12.7898 7.18857C12.7898 6.72518 12.9739 6.2808 13.3015 5.95319 13.6291 5.62533 14.0737 5.44129 14.5371 5.44129L29.2492 5.44129C29.7126 5.44129 30.1572 5.62533 30.4848 5.95319 30.8125 6.2808 30.9965 6.72517 30.9965 7.18857L30.9965 10.2882C30.9967 10.5379 31.1301 10.7685 31.3463 10.893 31.5625 11.0178 31.8287 11.0176 32.0449 10.8928L35.4346 8.94293C35.5836 8.85591 35.7678 8.85591 35.9168 8.94293 36.0728 9.02435 36.17 9.18621 36.1686 9.36221Z" fill="#8FA6FF" transform="matrix(1.00659 0 0 1 812.526 118.906)"/><path d="M1.17105-0.0702031C1.1106-0.0390017 1.04746-0.0156007 0.981895 0 0.916809 0.0160881 0.848559 0.0243758 0.777139 0.0243758 0.565069 0.0243758 0.397119-0.0346142 0.273043-0.153085 0.148725-0.272037 0.0868085-0.432924 0.0868085-0.635733 0.0868085-0.839029 0.148724-0.999909 0.273043-1.11838 0.397119-1.23733 0.565069-1.29682 0.777139-1.29682 0.848559-1.29682 0.916815-1.28853 0.981895-1.27244 1.04747-1.25684 1.1106-1.23344 1.17105-1.20224L1.17105-0.938972C1.10987-0.979924 1.04966-1.01015 0.990669-1.02965 0.931435-1.04915 0.869033-1.0589 0.803461-1.0589 0.686455-1.0589 0.594311-1.02112 0.527522-0.945796 0.460489-0.870962 0.427091-0.767605 0.427091-0.635729 0.427091-0.50434 0.460486-0.400988 0.527522-0.325662 0.594311-0.250829 0.686455-0.21353 0.803461-0.21353 0.869033-0.21353 0.931436-0.222793 0.990669-0.241806 1.04966-0.261307 1.10987-0.291777 1.17105-0.333464Z" fill="#8FA6FF" transform="matrix(1.00659 0 0 1 816.923 159.093)"/><path d="M0.85704-0.695229C0.829738-0.707417 0.802681-0.71668 0.776109-0.72253 0.750027-0.728868 0.723701-0.732281 0.697133-0.732281 0.618399-0.732281 0.557943-0.70693 0.515778-0.656224 0.473363-0.606009 0.452401-0.534346 0.452401-0.440741L0.452401-2.1841e-05 0.147214-2.1841e-05 0.147214-0.955533 0.452401-0.955533 0.452401-0.798553C0.491403-0.860955 0.536258-0.906297 0.586954-0.935059 0.638144-0.96431 0.699329-0.978935 0.770262-0.978935 0.7805-0.978935 0.791713-0.978204 0.803414-0.976985 0.815602-0.976254 0.833152-0.974548 0.856066-0.97211Z" fill="#8FA6FF" transform="matrix(1.00659 0 0 1 818.214 159.093)"/><path d="M1.10085-0.480695 1.10085-0.392944 0.386148-0.392944C0.393949-0.321281 0.419787-0.267652 0.464152-0.232063 0.508272-0.19623 0.57043-0.178436 0.650387-0.178436 0.714736-0.178436 0.780309-0.187699 0.847342-0.206712 0.914862-0.226213 0.984092-0.254976 1.05502-0.293489L1.05502-0.0585051C0.982875-0.0312039 0.910718-0.0107283 0.838562 0.00292295 0.766412 0.0170609 0.694256 0.0243739 0.622099 0.0243739 0.449032 0.0243739 0.314472-0.0195027 0.218428-0.107258 0.122877-0.195009 0.0750955-0.318111 0.0750955-0.476801 0.0750955-0.632808 0.122142-0.755174 0.216475-0.844391 0.310566-0.934095 0.440002-0.978944 0.604546-0.978944 0.754699-0.978944 0.874874-0.933361 0.965308-0.842438 1.0555-0.752004 1.10084-0.631342 1.10084-0.480695ZM0.786886-0.582099C0.786886-0.63987 0.769823-0.68643 0.736184-0.721532 0.702301-0.757121 0.658181-0.77516 0.603578-0.77516 0.544344-0.77516 0.49632-0.758584 0.459272-0.725432 0.422223-0.69228 0.399063-0.644502 0.390042-0.582099Z" fill="#8FA6FF" transform="matrix(1.00659 0 0 1 819.082 159.093)"/><path d="M0.575279-0.429993C0.511416-0.429993 0.46339-0.419267 0.430972-0.397816 0.399039-0.376365 0.383195-0.344433 0.383195-0.302265 0.383195-0.263264 0.396115-0.232549 0.422197-0.210608 0.448036-0.189157 0.483869-0.178432 0.529455-0.178432 0.587226-0.178432 0.635733-0.198908 0.674735-0.23986 0.714224-0.281299 0.734212-0.332977 0.734212-0.394893L0.734212-0.429995ZM1.04135-0.545051 1.04135 0 0.734212 0 0.734212-0.14138C0.69326-0.0833645 0.646948-0.0411921 0.595753-0.0146272 0.544319 0.0112113 0.481918 0.0243745 0.408545 0.0243745 0.30958 0.0243745 0.22938-0.00414542 0.167707-0.0614293 0.105792-0.119201 0.0750768-0.194279 0.0750768-0.286666 0.0750768-0.398311 0.113347-0.480214 0.190135-0.532377 0.267408-0.585029 0.388557-0.611354 0.553825-0.611354L0.734206-0.611354 0.734206-0.635729C0.734206-0.68375 0.714949-0.71885 0.676678-0.741034 0.638164-0.763704 0.578687-0.775161 0.498244-0.775161 0.432427-0.775161 0.371491-0.768579 0.314936-0.75566 0.25887-0.742497 0.206948-0.722996 0.158929-0.697157L0.158929-0.930194C0.223771-0.945795 0.289095-0.95774 0.354911-0.966271 0.421214-0.974558 0.487517-0.978946 0.55382-0.978946 0.725914-0.978946 0.850233-0.944819 0.926289-0.876568 1.00283-0.808805 1.04135-0.698377 1.04135-0.545053Z" fill="#8FA6FF" transform="matrix(1.00659 0 0 1 820.274 159.093)"/><path d="M0.480695-1.22659 0.480695-0.955524 0.795635-0.955524 0.795635-0.737114 0.480695-0.737114 0.480695-0.331496C0.480695-0.287131 0.48947-0.257393 0.507021-0.241792 0.524573-0.226191 0.559186-0.218391 0.611352-0.218391L0.768333-0.218391 0.768333 1.87208e-05 0.507021 1.87208e-05C0.386116 1.87208e-05 0.300312-0.024845 0.24961-0.0750581 0.199395-0.12576 0.174533-0.211077 0.174533-0.331496L0.174533-0.737114 0.0233998-0.737114 0.0233998-0.955524 0.174533-0.955524 0.174533-1.22659Z" fill="#8FA6FF" transform="matrix(1.00659 0 0 1 821.461 159.093)"/><path d="M1.10085-0.480695 1.10085-0.392944 0.386148-0.392944C0.393949-0.321281 0.419787-0.267652 0.464152-0.232063 0.508272-0.19623 0.57043-0.178436 0.650387-0.178436 0.714736-0.178436 0.780309-0.187699 0.847342-0.206712 0.914862-0.226213 0.984092-0.254976 1.05502-0.293489L1.05502-0.0585051C0.982875-0.0312039 0.910718-0.0107283 0.838562 0.00292295 0.766412 0.0170609 0.694256 0.0243739 0.622099 0.0243739 0.449032 0.0243739 0.314472-0.0195027 0.218428-0.107258 0.122877-0.195009 0.0750955-0.318111 0.0750955-0.476801 0.0750955-0.632808 0.122142-0.755174 0.216475-0.844391 0.310566-0.934095 0.440002-0.978944 0.604546-0.978944 0.754699-0.978944 0.874874-0.933361 0.965308-0.842438 1.0555-0.752004 1.10084-0.631342 1.10084-0.480695ZM0.786886-0.582099C0.786886-0.63987 0.769823-0.68643 0.736184-0.721532 0.702301-0.757121 0.658181-0.77516 0.603578-0.77516 0.544344-0.77516 0.49632-0.758584 0.459272-0.725432 0.422223-0.69228 0.399063-0.644502 0.390042-0.582099Z" fill="#8FA6FF" transform="matrix(1.00659 0 0 1 822.302 159.093)"/><path d="M0.796634-0.816103 0.796634-1.328 1.10377-1.328 1.10377-6.24028e-06 0.796634-6.24028e-06 0.796634-0.138465C0.754951-0.081913 0.708883-0.0404744 0.658174-0.0146334 0.607466 0.0112075 0.548483 0.0243683 0.481693 0.0243683 0.363958 0.0243683 0.267427-0.0224338 0.192107-0.116038 0.116543-0.209642 0.0790019-0.329817 0.0790019-0.476801 0.0790019-0.624277 0.116541-0.744939 0.192107-0.838543 0.267427-0.932148 0.363958-0.97895 0.481693-0.97895 0.547996-0.97895 0.606499-0.965543 0.657201-0.938973 0.708391-0.912159 0.754949-0.87121 0.796634-0.816115ZM0.595772-0.196949C0.660614-0.196949 0.710337-0.220594 0.744952-0.268126 0.779322-0.316147 0.796629-0.385618 0.796629-0.476788 0.796629-0.567709 0.779322-0.636939 0.744952-0.684471 0.710338-0.732492 0.660608-0.756621 0.595772-0.756621 0.530686-0.756621 0.480963-0.732489 0.446592-0.684471 0.411977-0.636937 0.394915-0.567709 0.394915-0.476788 0.394915-0.385624 0.411978-0.316151 0.446592-0.268126 0.480962-0.220593 0.530692-0.196949 0.595772-0.196949Z" fill="#8FA6FF" transform="matrix(1.00659 0 0 1 823.495 159.093)"/><path d="M0.655229-0.196956C0.720802-0.196956 0.770774-0.220601 0.805383-0.268132 0.839753-0.316153 0.85706-0.385624 0.85706-0.476795 0.85706-0.567715 0.839753-0.636945 0.805383-0.684477 0.770768-0.732498 0.720796-0.756627 0.655229-0.756627 0.589413-0.756627 0.539197-0.732495 0.504096-0.684477 0.469482-0.636212 0.452419-0.566985 0.452419-0.476795 0.452419-0.38636 0.469482-0.317131 0.504096-0.269112 0.539197-0.220847 0.589413-0.196962 0.655229-0.196962ZM0.45242-0.81611C0.494591-0.871199 0.541151-0.912154 0.591853-0.938968 0.643042-0.965538 0.702031-0.978945 0.768334-0.978945 0.886556-0.978945 0.98333-0.932143 1.05889-0.838538 1.13421-0.744934 1.172-0.624272 1.172-0.476796 1.172-0.329806 1.13422-0.209637 1.05889-0.116033 0.98333-0.0224288 0.886556 0.0243733 0.768334 0.0243733 0.702031 0.0243733 0.643042 0.01121 0.591853-0.0146285 0.541151-0.0411983 0.494592-0.0823916 0.45242-0.138461L0.45242-1.24806e-06 0.147233-1.24806e-06 0.147233-1.32799 0.45242-1.32799Z" fill="#8FA6FF" transform="matrix(1.00659 0 0 1 825.366 159.093)"/><path d="M0.021451-0.955511 0.326638-0.955511 0.584049-0.307084 0.802459-0.955511 1.10765-0.955511 0.705928 0.0907336C0.665464 0.196525 0.618421 0.270628 0.564548 0.313043 0.510433 0.355945 0.439743 0.377393 0.351992 0.377393L0.174531 0.377393 0.174531 0.176531 0.270082 0.176531C0.322003 0.176531 0.359786 0.167999 0.383187 0.15118 0.407076 0.134848 0.425602 0.105597 0.438764 0.0634293L0.44754 0.0371028Z" fill="#8FA6FF" transform="matrix(1.00659 0 0 1 826.625 159.093)"/><path d="M0.00877508-1.27339 0.338337-1.27339 0.676678-0.33348 1.01404-1.27339 1.3436-1.27339 0.871681 0 0.48069 0Z" fill="#8FA6FF" transform="matrix(1.00659 0 0 1 828.384 159.093)"/><path d="M0.147233-0.955511 0.45242-0.955511 0.45242 0 0.147233 0ZM0.147233-1.32798 0.45242-1.32798 0.45242-1.07837 0.147233-1.07837Z" fill="#8FA6FF" transform="matrix(1.00659 0 0 1 829.745 159.093)"/><path d="M0.893108-0.925308 0.893108-0.693245C0.828022-0.720546 0.764889-0.741022 0.703953-0.754673 0.642769-0.768323 0.585244-0.775148 0.531372-0.775148 0.473357-0.775148 0.430211-0.767835 0.401693-0.753697 0.37366-0.739316 0.359766-0.71689 0.359766-0.686421 0.359766-0.662289 0.370491-0.643763 0.391942-0.630844 0.413393-0.617681 0.451663-0.60793 0.507-0.601593L0.560628-0.593792C0.717121-0.57356 0.822426-0.540653 0.876542-0.495314 0.930413-0.449731 0.957472-0.378553 0.957472-0.281778 0.957472-0.179644 0.919689-0.102857 0.844367-0.0516682 0.769533-0.000965995 0.657645 0.0243882 0.508952 0.0243882 0.445089 0.0243882 0.379516 0.019513 0.311996 0.00976229 0.244963 1.18565e-05 0.175977-0.0148575 0.105287-0.0350897L0.105287-0.267153C0.16574-0.23717 0.227653-0.214745 0.291522-0.199877 0.355872-0.185495 0.421201-0.178426 0.487504-0.178426 0.547225-0.178426 0.592079-0.18647 0.622057-0.202802 0.651796-0.219621 0.666909-0.244241 0.666909-0.276905 0.666909-0.304206 0.656427-0.324194 0.635708-0.337357 0.614744-0.351008 0.573549-0.361246 0.511876-0.368559L0.458248-0.375384C0.322229-0.392204 0.227164-0.423649 0.172562-0.469962 0.117959-0.516033 0.0906581-0.585994 0.0906581-0.679598 0.0906581-0.781002 0.125028-0.856079 0.19401-0.904835 0.263483-0.954074 0.370004-0.978938 0.513824-0.978938 0.569645-0.978938 0.628389-0.974306 0.690305-0.965287 0.752708-0.956755 0.820228-0.943349 0.893114-0.925311Z" fill="#8FA6FF" transform="matrix(1.00659 0 0 1 830.348 159.093)"/><path d="M0.136506-0.37247 0.136506-0.955549 0.443646-0.955549 0.443646-0.859997C0.443646-0.807833 0.443159-0.742992 0.442671-0.664989 0.44194-0.586985 0.441696-0.534823 0.441696-0.508982 0.441696-0.431465 0.443646-0.375889 0.447546-0.342248 0.451934-0.308365 0.45876-0.283989 0.468022-0.269118 0.480941-0.248886 0.497517-0.233285 0.517749-0.222316 0.537738-0.211834 0.560895-0.206715 0.586979-0.206715 0.650599-0.206715 0.700571-0.231091 0.737133-0.279845 0.773453-0.328597 0.791735-0.396364 0.791735-0.483628L0.791735-0.955549 1.09692-0.955549 1.09692-3.74417e-05 0.791735-3.74417e-05 0.791735-0.138497C0.74542-0.0824316 0.696671-0.0412357 0.645476-0.0146646 0.594042 0.0111738 0.537244 0.0243371 0.474841 0.0243371 0.364906 0.0243371 0.28105-0.00930176 0.223283-0.0770674 0.165268-0.144587 0.136506-0.243071 0.136506-0.372507Z" fill="#8FA6FF" transform="matrix(1.00659 0 0 1 831.395 159.093)"/><path d="M0.575279-0.429993C0.511416-0.429993 0.46339-0.419267 0.430972-0.397816 0.399039-0.376365 0.383195-0.344433 0.383195-0.302265 0.383195-0.263264 0.396115-0.232549 0.422197-0.210608 0.448036-0.189157 0.483869-0.178432 0.529455-0.178432 0.587226-0.178432 0.635733-0.198908 0.674735-0.23986 0.714224-0.281299 0.734212-0.332977 0.734212-0.394893L0.734212-0.429995ZM1.04135-0.545051 1.04135 0 0.734212 0 0.734212-0.14138C0.69326-0.0833645 0.646948-0.0411921 0.595753-0.0146272 0.544319 0.0112113 0.481918 0.0243745 0.408545 0.0243745 0.30958 0.0243745 0.22938-0.00414542 0.167707-0.0614293 0.105792-0.119201 0.0750768-0.194279 0.0750768-0.286666 0.0750768-0.398311 0.113347-0.480214 0.190135-0.532377 0.267408-0.585029 0.388557-0.611354 0.553825-0.611354L0.734206-0.611354 0.734206-0.635729C0.734206-0.68375 0.714949-0.71885 0.676678-0.741034 0.638164-0.763704 0.578687-0.775161 0.498244-0.775161 0.432427-0.775161 0.371491-0.768579 0.314936-0.75566 0.25887-0.742497 0.206948-0.722996 0.158929-0.697157L0.158929-0.930194C0.223771-0.945795 0.289095-0.95774 0.354911-0.966271 0.421214-0.974558 0.487517-0.978946 0.55382-0.978946 0.725914-0.978946 0.850233-0.944819 0.926289-0.876568 1.00283-0.808805 1.04135-0.698377 1.04135-0.545053Z" fill="#8FA6FF" transform="matrix(1.00659 0 0 1 832.647 159.093)"/><path d="M0.147233-1.32799 0.45242-1.32799 0.45242 0 0.147233 0Z" fill="#8FA6FF" transform="matrix(1.00659 0 0 1 833.834 159.093)"/><path d="M1.30559-0.0945776C1.22369-0.0548445 1.13837-0.0248613 1.05013-0.00487366 0.962375 0.0146272 0.871205 0.0243776 0.777114 0.0243776 0.565045 0.0243776 0.397094-0.0346123 0.273018-0.153083 0.1487-0.272036 0.0867835-0.432922 0.0867835-0.635731 0.0867835-0.84098 0.149673-1.00259 0.275939-1.12033 0.402691-1.23782 0.575765-1.29681 0.795635-1.29681 0.879979-1.29681 0.960903-1.28852 1.03842-1.27243 1.11642-1.25683 1.1898-1.23343 1.25878-1.20223L1.25878-0.938964C1.18711-0.979184 1.11642-1.00917 1.04622-1.02867 0.976017-1.04866 0.905814-1.05889 0.835611-1.05889 0.704221-1.05889 0.60306-1.02209 0.532371-0.948716 0.462167-0.87583 0.427066-0.771505 0.427066-0.635729 0.427066-0.501176 0.461193-0.397088 0.529444-0.323715 0.5977-0.250098 0.694468-0.213537 0.820004-0.213537 0.853642-0.213537 0.885333-0.215487 0.914581-0.219387 0.94432-0.223775 0.970646-0.2306 0.993558-0.239863L0.993558-0.487527 0.793676-0.487527 0.793676-0.70691 1.30557-0.70691Z" fill="#8FA6FF" transform="matrix(1.00659 0 0 1 835.049 159.093)"/><path d="M0.147233-1.32799 0.45242-1.32799 0.45242 0 0.147233 0Z" fill="#8FA6FF" transform="matrix(1.00659 0 0 1 836.492 159.093)"/><path d="M0.6016-0.760565C0.533837-0.760565 0.482155-0.736189 0.446567-0.687435 0.410734-0.638683 0.392939-0.568483 0.392939-0.476826 0.392939-0.385169 0.410734-0.314965 0.446567-0.266216 0.482156-0.217952 0.533831-0.194066 0.6016-0.194066 0.667903-0.194066 0.718605-0.217955 0.753707-0.266216 0.789296-0.314969 0.807335-0.385169 0.807335-0.476826 0.807335-0.568483 0.789296-0.638686 0.753707-0.687435 0.718605-0.736187 0.667903-0.760565 0.6016-0.760565ZM0.6016-0.978975C0.765894-0.978975 0.894356-0.934367 0.986744-0.845395 1.07889-0.756908 1.1252-0.634056 1.1252-0.476832 1.1252-0.320095 1.07889-0.197236 0.986744-0.108269 0.894356-0.0197817 0.765894 0.0243371 0.6016 0.0243371 0.436333 0.0243371 0.307384-0.0197835 0.21451-0.108269 0.121392-0.197243 0.0750768-0.320095 0.0750768-0.476832 0.0750768-0.634056 0.121391-0.756914 0.21451-0.845395 0.307384-0.934369 0.436333-0.978975 0.6016-0.978975Z" fill="#8FA6FF" transform="matrix(1.00659 0 0 1 837.095 159.093)"/><path d="M0.061428-0.955511 0.358815-0.955511 0.518722-0.297349 0.679602-0.955511 0.935067-0.955511 1.09595-0.304151 1.25683-0.955511 1.55324-0.955511 1.30168 0 0.968215 0 0.807335-0.657164 0.646454 0 0.312986 0Z" fill="#8FA6FF" transform="matrix(1.00659 0 0 1 838.304 159.093)"/><path d="M0.775167-1.32799 0.775167-1.12713 0.606486-1.12713C0.563584-1.12713 0.533356-1.11933 0.515809-1.10373 0.498745-1.08813 0.490458-1.06083 0.490458-1.02183L0.490458-0.955524 0.751769-0.955524 0.751769-0.737114 0.490458-0.737114 0.490458-1.24806e-05 0.185271-1.24806e-05 0.185271-0.737114 0.0331639-0.737114 0.0331639-0.955524 0.185271-0.955524 0.185271-1.02183C0.185271-1.12567 0.214035-1.20269 0.272048-1.25291 0.329819-1.30288 0.419768-1.32799 0.542133-1.32799Z" fill="#8FA6FF" transform="matrix(1.00659 0 0 1 816.923 160.841)"/><path d="M0.85704-0.695229C0.829738-0.707417 0.802681-0.71668 0.776109-0.72253 0.750027-0.728868 0.723701-0.732281 0.697133-0.732281 0.618399-0.732281 0.557943-0.70693 0.515778-0.656224 0.473363-0.606009 0.452401-0.534346 0.452401-0.440741L0.452401-2.1841e-05 0.147214-2.1841e-05 0.147214-0.955533 0.452401-0.955533 0.452401-0.798553C0.491403-0.860955 0.536258-0.906297 0.586954-0.935059 0.638144-0.96431 0.699329-0.978935 0.770262-0.978935 0.7805-0.978935 0.791713-0.978204 0.803414-0.976985 0.815602-0.976254 0.833152-0.974548 0.856066-0.97211Z" fill="#8FA6FF" transform="matrix(1.00659 0 0 1 817.689 160.841)"/><path d="M0.6016-0.760565C0.533837-0.760565 0.482155-0.736189 0.446567-0.687435 0.410734-0.638683 0.392939-0.568483 0.392939-0.476826 0.392939-0.385169 0.410734-0.314965 0.446567-0.266216 0.482156-0.217952 0.533831-0.194066 0.6016-0.194066 0.667903-0.194066 0.718605-0.217955 0.753707-0.266216 0.789296-0.314969 0.807335-0.385169 0.807335-0.476826 0.807335-0.568483 0.789296-0.638686 0.753707-0.687435 0.718605-0.736187 0.667903-0.760565 0.6016-0.760565ZM0.6016-0.978975C0.765894-0.978975 0.894356-0.934367 0.986744-0.845395 1.07889-0.756908 1.1252-0.634056 1.1252-0.476832 1.1252-0.320095 1.07889-0.197236 0.986744-0.108269 0.894356-0.0197817 0.765894 0.0243371 0.6016 0.0243371 0.436333 0.0243371 0.307384-0.0197835 0.21451-0.108269 0.121392-0.197243 0.0750768-0.320095 0.0750768-0.476832 0.0750768-0.634056 0.121391-0.756914 0.21451-0.845395 0.307384-0.934369 0.436333-0.978975 0.6016-0.978975Z" fill="#8FA6FF" transform="matrix(1.00659 0 0 1 818.556 160.841)"/><path d="M1.03258-0.796634C1.07085-0.855624 1.11668-0.900965 1.17006-0.932166 1.2232-0.963368 1.2817-0.978968 1.34557-0.978968 1.45526-0.978968 1.53887-0.944842 1.59615-0.87659 1.65392-0.808827 1.68293-0.710836 1.68293-0.582124L1.68293-2.49611e-05 1.37579-2.49611e-05 1.37579-0.498274 1.37579-0.5207C1.37628-0.528988 1.37676-0.540688 1.37676-0.555801 1.37676-0.623321 1.36652-0.672077 1.34654-0.702061 1.32704-0.732531 1.2951-0.747888 1.25098-0.747888 1.19297-0.747888 1.14812-0.723756 1.11643-0.675738 1.0845-0.628205 1.06817-0.55922 1.06768-0.469029L1.06768-3.49456e-05 0.76054-3.49456e-05 0.76054-0.498284C0.76054-0.604075 0.751277-0.672088 0.733238-0.702066 0.714956-0.732536 0.682536-0.747893 0.635734-0.747893 0.577232-0.747893 0.53189-0.723761 0.500202-0.675743 0.468269-0.62821 0.452425-0.559712 0.452425-0.470008L0.452425-3.99378e-05 0.145285-3.99378e-05 0.145285-0.955551 0.452425-0.955551 0.452425-0.816118C0.489964-0.869989 0.532868-0.910696 0.58113-0.937997 0.629883-0.965298 0.683508-0.978949 0.742011-0.978949 0.808314-0.978949 0.866817-0.962861 0.917519-0.931172 0.968221-0.899239 1.00649-0.854386 1.03258-0.796619Z" fill="#8FA6FF" transform="matrix(1.00659 0 0 1 819.764 160.841)"/><path d="M0.480695-1.22659 0.480695-0.955524 0.795635-0.955524 0.795635-0.737114 0.480695-0.737114 0.480695-0.331496C0.480695-0.287131 0.48947-0.257393 0.507021-0.241792 0.524573-0.226191 0.559186-0.218391 0.611352-0.218391L0.768333-0.218391 0.768333 1.87208e-05 0.507021 1.87208e-05C0.386116 1.87208e-05 0.300312-0.024845 0.24961-0.0750581 0.199395-0.12576 0.174533-0.211077 0.174533-0.331496L0.174533-0.737114 0.0233998-0.737114 0.0233998-0.955524 0.174533-0.955524 0.174533-1.22659Z" fill="#8FA6FF" transform="matrix(1.00659 0 0 1 822.209 160.841)"/><path d="M1.10765-0.582099 1.10765 0 0.800509 0 0.800509-0.443646C0.800509-0.527503 0.798559-0.585026 0.794659-0.616227 0.790758-0.647429 0.784177-0.670342 0.775158-0.685457 0.763457-0.704958 0.747125-0.720071 0.726406-0.731284 0.706173-0.742253 0.683016-0.74786 0.657176-0.74786 0.593313-0.74786 0.543341-0.722996 0.507023-0.673756 0.470458-0.625004 0.45242-0.556995 0.45242-0.469974L0.45242-6.24028e-06 0.147233-6.24028e-06 0.147233-1.328 0.45242-1.328 0.45242-0.816103C0.498491-0.871193 0.547241-0.912147 0.59868-0.938962 0.650601-0.965532 0.707884-0.978938 0.770287-0.978938 0.880709-0.978938 0.964566-0.944812 1.02185-0.87656 1.07889-0.808797 1.10765-0.710806 1.10765-0.582094Z" fill="#8FA6FF" transform="matrix(1.00659 0 0 1 823.05 160.841)"/><path d="M1.10085-0.480695 1.10085-0.392944 0.386148-0.392944C0.393949-0.321281 0.419787-0.267652 0.464152-0.232063 0.508272-0.19623 0.57043-0.178436 0.650387-0.178436 0.714736-0.178436 0.780309-0.187699 0.847342-0.206712 0.914862-0.226213 0.984092-0.254976 1.05502-0.293489L1.05502-0.0585051C0.982875-0.0312039 0.910718-0.0107283 0.838562 0.00292295 0.766412 0.0170609 0.694256 0.0243739 0.622099 0.0243739 0.449032 0.0243739 0.314472-0.0195027 0.218428-0.107258 0.122877-0.195009 0.0750955-0.318111 0.0750955-0.476801 0.0750955-0.632808 0.122142-0.755174 0.216475-0.844391 0.310566-0.934095 0.440002-0.978944 0.604546-0.978944 0.754699-0.978944 0.874874-0.933361 0.965308-0.842438 1.0555-0.752004 1.10084-0.631342 1.10084-0.480695ZM0.786886-0.582099C0.786886-0.63987 0.769823-0.68643 0.736184-0.721532 0.702301-0.757121 0.658181-0.77516 0.603578-0.77516 0.544344-0.77516 0.49632-0.758584 0.459272-0.725432 0.422223-0.69228 0.399063-0.644502 0.390042-0.582099Z" fill="#8FA6FF" transform="matrix(1.00659 0 0 1 824.302 160.841)"/><path d="M0.160881-1.27339 0.527497-1.27339 0.990644-0.399752 0.990644-1.27339 1.30168-1.27339 1.30168 0 0.935068 0 0.471921-0.873639 0.471921 0 0.160881 0Z" fill="#8FA6FF" transform="matrix(1.00659 0 0 1 826.107 160.841)"/><path d="M0.6016-0.760565C0.533837-0.760565 0.482155-0.736189 0.446567-0.687435 0.410734-0.638683 0.392939-0.568483 0.392939-0.476826 0.392939-0.385169 0.410734-0.314965 0.446567-0.266216 0.482156-0.217952 0.533831-0.194066 0.6016-0.194066 0.667903-0.194066 0.718605-0.217955 0.753707-0.266216 0.789296-0.314969 0.807335-0.385169 0.807335-0.476826 0.807335-0.568483 0.789296-0.638686 0.753707-0.687435 0.718605-0.736187 0.667903-0.760565 0.6016-0.760565ZM0.6016-0.978975C0.765894-0.978975 0.894356-0.934367 0.986744-0.845395 1.07889-0.756908 1.1252-0.634056 1.1252-0.476832 1.1252-0.320095 1.07889-0.197236 0.986744-0.108269 0.894356-0.0197817 0.765894 0.0243371 0.6016 0.0243371 0.436333 0.0243371 0.307384-0.0197835 0.21451-0.108269 0.121392-0.197243 0.0750768-0.320095 0.0750768-0.476832 0.0750768-0.634056 0.121391-0.756914 0.21451-0.845395 0.307384-0.934369 0.436333-0.978975 0.6016-0.978975Z" fill="#8FA6FF" transform="matrix(1.00659 0 0 1 827.579 160.841)"/><path d="M0.136506-0.37247 0.136506-0.955549 0.443646-0.955549 0.443646-0.859997C0.443646-0.807833 0.443159-0.742992 0.442671-0.664989 0.44194-0.586985 0.441696-0.534823 0.441696-0.508982 0.441696-0.431465 0.443646-0.375889 0.447546-0.342248 0.451934-0.308365 0.45876-0.283989 0.468022-0.269118 0.480941-0.248886 0.497517-0.233285 0.517749-0.222316 0.537738-0.211834 0.560895-0.206715 0.586979-0.206715 0.650599-0.206715 0.700571-0.231091 0.737133-0.279845 0.773453-0.328597 0.791735-0.396364 0.791735-0.483628L0.791735-0.955549 1.09692-0.955549 1.09692-3.74417e-05 0.791735-3.74417e-05 0.791735-0.138497C0.74542-0.0824316 0.696671-0.0412357 0.645476-0.0146646 0.594042 0.0111738 0.537244 0.0243371 0.474841 0.0243371 0.364906 0.0243371 0.28105-0.00930176 0.223283-0.0770674 0.165268-0.144587 0.136506-0.243071 0.136506-0.372507Z" fill="#8FA6FF" transform="matrix(1.00659 0 0 1 828.788 160.841)"/><path d="M1.10765-0.582099 1.10765 0 0.800509 0 0.800509-0.445593C0.800509-0.527984 0.798559-0.585026 0.794659-0.616227 0.790758-0.647429 0.784177-0.670342 0.775158-0.685457 0.763457-0.704958 0.747125-0.720071 0.726406-0.731284 0.706173-0.742253 0.683016-0.74786 0.657176-0.74786 0.593313-0.74786 0.543341-0.722996 0.507023-0.673756 0.470458-0.625004 0.45242-0.556995 0.45242-0.469974L0.45242-6.24028e-06 0.147233-6.24028e-06 0.147233-0.955517 0.45242-0.955517 0.45242-0.816085C0.498491-0.871174 0.547241-0.912129 0.59868-0.938943 0.650601-0.965513 0.707884-0.97892 0.770287-0.97892 0.880709-0.97892 0.964566-0.944793 1.02185-0.876542 1.07889-0.808779 1.10765-0.710787 1.10765-0.582076Z" fill="#8FA6FF" transform="matrix(1.00659 0 0 1 830.04 160.841)"/><path d="M0.160881-1.27339 0.705931-1.27339C0.867792-1.27339 0.991861-1.23731 1.0784-1.16516 1.16542-1.0935 1.20906-0.991112 1.20906-0.858019 1.20906-0.724683 1.16543-0.622062 1.0784-0.549906 0.991867-0.477756 0.867792-0.441674 0.705931-0.441674L0.488495-0.441674 0.488495 1.87208e-05 0.160881 1.87208e-05ZM0.488495-1.03548 0.488495-0.679591 0.67083-0.679591C0.734449-0.679591 0.783448-0.695192 0.818063-0.726393 0.853164-0.757595 0.870715-0.80147 0.870715-0.858026 0.870715-0.915065 0.853164-0.958943 0.818063-0.989658 0.783449-1.02013 0.734456-1.03549 0.67083-1.03549Z" fill="#8FA6FF" transform="matrix(1.00659 0 0 1 831.904 160.841)"/><path d="M0.85704-0.695229C0.829738-0.707417 0.802681-0.71668 0.776109-0.72253 0.750027-0.728868 0.723701-0.732281 0.697133-0.732281 0.618399-0.732281 0.557943-0.70693 0.515778-0.656224 0.473363-0.606009 0.452401-0.534346 0.452401-0.440741L0.452401-2.1841e-05 0.147214-2.1841e-05 0.147214-0.955533 0.452401-0.955533 0.452401-0.798553C0.491403-0.860955 0.536258-0.906297 0.586954-0.935059 0.638144-0.96431 0.699329-0.978935 0.770262-0.978935 0.7805-0.978935 0.791713-0.978204 0.803414-0.976985 0.815602-0.976254 0.833152-0.974548 0.856066-0.97211Z" fill="#8FA6FF" transform="matrix(1.00659 0 0 1 833.193 160.841)"/><path d="M0.6016-0.760565C0.533837-0.760565 0.482155-0.736189 0.446567-0.687435 0.410734-0.638683 0.392939-0.568483 0.392939-0.476826 0.392939-0.385169 0.410734-0.314965 0.446567-0.266216 0.482156-0.217952 0.533831-0.194066 0.6016-0.194066 0.667903-0.194066 0.718605-0.217955 0.753707-0.266216 0.789296-0.314969 0.807335-0.385169 0.807335-0.476826 0.807335-0.568483 0.789296-0.638686 0.753707-0.687435 0.718605-0.736187 0.667903-0.760565 0.6016-0.760565ZM0.6016-0.978975C0.765894-0.978975 0.894356-0.934367 0.986744-0.845395 1.07889-0.756908 1.1252-0.634056 1.1252-0.476832 1.1252-0.320095 1.07889-0.197236 0.986744-0.108269 0.894356-0.0197817 0.765894 0.0243371 0.6016 0.0243371 0.436333 0.0243371 0.307384-0.0197835 0.21451-0.108269 0.121392-0.197243 0.0750768-0.320095 0.0750768-0.476832 0.0750768-0.634056 0.121391-0.756914 0.21451-0.845395 0.307384-0.934369 0.436333-0.978975 0.6016-0.978975Z" fill="#8FA6FF" transform="matrix(1.00659 0 0 1 834.06 160.841)"/><path d="M0.147233-0.955511 0.45242-0.955511 0.45242-0.0175352C0.45242 0.11044 0.421463 0.208188 0.359789 0.275951 0.298605 0.343471 0.209636 0.377356 0.0926307 0.377356L-0.0585026 0.377356-0.0585026 0.176494-0.0048749 0.176494C0.0528963 0.176494 0.0926294 0.163331 0.114077 0.137492 0.136016 0.11141 0.147229 0.0597319 0.147229-0.0175414ZM0.147233-1.32798 0.45242-1.32798 0.45242-1.07837 0.147233-1.07837Z" fill="#8FA6FF" transform="matrix(1.00659 0 0 1 835.269 160.841)"/><path d="M1.10085-0.480695 1.10085-0.392944 0.386148-0.392944C0.393949-0.321281 0.419787-0.267652 0.464152-0.232063 0.508272-0.19623 0.57043-0.178436 0.650387-0.178436 0.714736-0.178436 0.780309-0.187699 0.847342-0.206712 0.914862-0.226213 0.984092-0.254976 1.05502-0.293489L1.05502-0.0585051C0.982875-0.0312039 0.910718-0.0107283 0.838562 0.00292295 0.766412 0.0170609 0.694256 0.0243739 0.622099 0.0243739 0.449032 0.0243739 0.314472-0.0195027 0.218428-0.107258 0.122877-0.195009 0.0750955-0.318111 0.0750955-0.476801 0.0750955-0.632808 0.122142-0.755174 0.216475-0.844391 0.310566-0.934095 0.440002-0.978944 0.604546-0.978944 0.754699-0.978944 0.874874-0.933361 0.965308-0.842438 1.0555-0.752004 1.10084-0.631342 1.10084-0.480695ZM0.786886-0.582099C0.786886-0.63987 0.769823-0.68643 0.736184-0.721532 0.702301-0.757121 0.658181-0.77516 0.603578-0.77516 0.544344-0.77516 0.49632-0.758584 0.459272-0.725432 0.422223-0.69228 0.399063-0.644502 0.390042-0.582099Z" fill="#8FA6FF" transform="matrix(1.00659 0 0 1 835.872 160.841)"/><path d="M0.918506-0.925308 0.918506-0.676671C0.877554-0.705191 0.835873-0.726398 0.793701-0.740047 0.752018-0.753697 0.70887-0.760522 0.664022-0.760522 0.578705-0.760522 0.512158-0.735415 0.464139-0.685446 0.416606-0.635962 0.392963-0.566494 0.392963-0.476783 0.392963-0.387566 0.416608-0.318093 0.464139-0.268121 0.51216-0.218637 0.578705-0.194018 0.664022-0.194018 0.711311-0.194018 0.756652-0.200843 0.799554-0.214493 0.842456-0.228631 0.881944-0.249839 0.918506-0.27787L0.918506-0.0282585C0.870973-0.0107077 0.822462 0.00221155 0.773226 0.0107433 0.724474 0.0197623 0.674992 0.0243939 0.62502 0.0243939 0.452682 0.0243939 0.31788-0.0197268 0.220375-0.108212 0.123358-0.196456 0.0750955-0.319308 0.0750955-0.476775 0.0750955-0.634729 0.12336-0.757831 0.220375-0.846318 0.31788-0.934562 0.452682-0.978924 0.62502-0.978924 0.674991-0.978924 0.724477-0.974293 0.773226-0.965273 0.821979-0.956742 0.870244-0.943335 0.918506-0.925297Z" fill="#8FA6FF" transform="matrix(1.00659 0 0 1 837.065 160.841)"/><path d="M0.480695-1.22659 0.480695-0.955524 0.795635-0.955524 0.795635-0.737114 0.480695-0.737114 0.480695-0.331496C0.480695-0.287131 0.48947-0.257393 0.507021-0.241792 0.524573-0.226191 0.559186-0.218391 0.611352-0.218391L0.768333-0.218391 0.768333 1.87208e-05 0.507021 1.87208e-05C0.386116 1.87208e-05 0.300312-0.024845 0.24961-0.0750581 0.199395-0.12576 0.174533-0.211077 0.174533-0.331496L0.174533-0.737114 0.0233998-0.737114 0.0233998-0.955524 0.174533-0.955524 0.174533-1.22659Z" fill="#8FA6FF" transform="matrix(1.00659 0 0 1 838.107 160.841)"/></g></g></g></svg>