<svg width="24" height="24" viewBox="0 0 24 24" xmlns="http://www.w3.org/2000/svg" xmlns:xlink="http://www.w3.org/1999/xlink" fill="none" overflow="hidden"><path d="M2 5.25C2 3.45507 3.45507 2 5.25 2L13.25 2C15.0449 2 16.5 3.45507 16.5 5.25L16.5 7.5 18.75 7.5C20.5449 7.5 22 8.95507 22 10.75L22 18.75C22 20.5449 20.5449 22 18.75 22L10.75 22C8.95507 22 7.5 20.5449 7.5 18.75L7.5 16.5 5.25 16.5C3.45507 16.5 2 15.0449 2 13.25L2 5.25ZM15 5.25C15 4.2835 14.2165 3.5 13.25 3.5L5.25 3.5C4.2835 3.5 3.5 4.2835 3.5 5.25L3.5 13.25C3.5 14.216 4.284 15 5.25 15L7.5 15 7.5 10.75C7.49985 10.4274 7.54771 10.1065 7.642 9.798 8.06237 8.4336 9.32232 7.50202 10.75 7.5L15 7.5 15 5.25ZM9 14.56 9 15 10.44 15 15 10.44 15 9 14.56 9 9 14.56ZM12.44 9 10.75 9C10.6832 8.99989 10.6164 9.00356 10.55 9.011L9.01 10.55C9.0029 10.6164 8.99956 10.6832 9 10.75L9 12.44 12.44 9ZM16.5 9 16.5 13.25C16.5 15.0449 15.0449 16.5 13.25 16.5L9 16.5 9 18.75C9 19.716 9.784 20.5 10.75 20.5L18.75 20.5C19.7165 20.5 20.5 19.7165 20.5 18.75L20.5 10.75C20.5 9.7835 19.7165 9 18.75 9L16.5 9ZM12.56 15 13.25 15C14.2165 15 15 14.2165 15 13.25L15 12.56 12.56 15Z" fill="#8FA6FF"/></svg>