<svg width="24" height="24" viewBox="0 0 14 14" xmlns="http://www.w3.org/2000/svg" xmlns:xlink="http://www.w3.org/1999/xlink" fill="none" overflow="hidden"><path d="M9.39704 7.00869C10.7219 7.00869 11.7959 5.93467 11.7959 4.60981 11.7959 3.28495 10.7219 2.21094 9.39704 2.21094 8.07218 2.21094 6.99817 3.28495 6.99817 4.60981 6.99817 5.93467 8.07218 7.00869 9.39704 7.00869Z" fill="#D7E0FF"/><path d="M9.39703 7.0088C10.7219 7.0088 11.7959 5.93478 11.7959 4.60992 11.7959 3.58506 11.1532 2.71031 10.2489 2.3667" stroke="#4147D5" stroke-linecap="round" stroke-linejoin="round"/><path d="M12.6736 10.3786C13.847 11.1601 13.0547 12.6674 11.6448 12.6674L6.35044 12.6674C4.94059 12.6674 4.14824 11.1601 5.32165 10.3786 6.37417 9.67759 7.63819 9.26904 8.99764 9.26904 10.3571 9.26904 11.6211 9.67759 12.6736 10.3786Z" fill="#D7E0FF"/><path d="M5.36049 6.53323C6.79662 6.53323 7.96084 5.36901 7.96084 3.93288 7.96084 2.49674 6.79662 1.33252 5.36049 1.33252 3.92435 1.33252 2.76013 2.49674 2.76013 3.93288 2.76013 5.36901 3.92435 6.53323 5.36049 6.53323Z" stroke="#4147D5" stroke-linecap="round" stroke-linejoin="round" fill="#D7E0FF"/><path d="M9.34353 10.1866C10.6155 11.0338 9.75659 12.6677 8.22833 12.6677L2.48926 12.6677C0.961003 12.6677 0.102108 11.0338 1.37407 10.1866 2.515 9.42674 3.88518 8.98389 5.3588 8.98389 6.83242 8.98389 8.20261 9.42674 9.34353 10.1866Z" stroke="#4147D5" fill="#D7E0FF"/><path d="M8.00726 12.6676 11.6448 12.6676C13.0547 12.6676 13.847 11.1603 12.6736 10.3787 12.3496 10.1629 12.0055 9.97485 11.6448 9.81787" stroke="#4147D5" stroke-linecap="round"/></svg>