<svg width="751.951" height="555.868" viewBox="0 0 751.951 555.868" xmlns="http://www.w3.org/2000/svg" xmlns:xlink="http://www.w3.org/1999/xlink" overflow="hidden"><path d="M757.765 579.763 352.83 579.763C345.317 579.754 339.229 573.667 339.221 566.154L339.221 236.431C339.229 228.919 345.317 222.831 352.83 222.822L757.765 222.822C765.278 222.831 771.365 228.919 771.374 236.431L771.374 566.154C771.365 573.667 765.278 579.754 757.765 579.763Z" fill="#E6E6E6" transform="translate(-224.025 -172.066)"/><path d="M362.011 232.509C354.775 232.517 348.91 238.382 348.902 245.618L348.902 556.975C348.911 564.211 354.775 570.075 362.011 570.083L639.174 570.083C706.808 570.007 761.618 515.197 761.695 447.562L761.695 245.618C761.687 238.382 755.822 232.517 748.586 232.509Z" fill="#FFFFFF" transform="translate(-224.025 -172.066)"/><path d="M683.925 372.54 610.5 372.54C607.312 372.536 604.728 369.952 604.724 366.764L604.724 330.219C604.728 327.03 607.312 324.447 610.5 324.443L683.925 324.443C687.113 324.447 689.697 327.03 689.701 330.219 694.244 343.151 694.889 355.44 689.701 366.764 689.697 369.952 687.113 372.536 683.925 372.54Z" fill="#E6E6E6" transform="translate(-224.025 -172.066)"/><path d="M675.226 369.008 612.845 369.008C610.136 369.005 607.94 366.81 607.937 364.101L607.937 333.052C607.94 330.343 610.136 328.148 612.845 328.145L675.226 328.145C677.935 328.148 680.131 330.343 680.134 333.052 684.344 344.11 685.021 354.573 680.134 364.101 680.131 366.81 677.935 369.005 675.226 369.008Z" fill="#FFFFFF" transform="translate(-224.025 -172.066)"/><path d="M671.862 391.683 622.4 391.683C619.37 391.687 616.909 389.234 616.905 386.203 616.9 383.174 619.351 380.715 622.38 380.708L671.862 380.708C674.893 380.714 677.345 383.175 677.339 386.206 677.333 389.228 674.885 391.677 671.862 391.683Z" fill="#E6E6E6" transform="translate(-224.025 -172.066)"/><path d="M638.606 336.528C637.421 336.533 636.463 337.493 636.46 338.677L636.46 361.938C636.46 363.123 637.42 364.083 638.605 364.083 638.978 364.083 639.344 363.986 639.668 363.802L660.199 352.095C661.228 351.509 661.588 350.2 661.002 349.171 660.809 348.832 660.528 348.553 660.189 348.362L639.659 336.807C639.338 336.625 638.975 336.529 638.606 336.528Z" fill="#E6E6E6" transform="translate(-224.025 -172.066)"/><path d="M938.139 683.43C935.822 680.484 931.946 679.245 928.35 680.301L927.965 680.415 924.518 693.874C924.002 691.868 922.896 687.34 922.2 682.908L922.14 682.541 921.797 682.691C918.194 684.284 914.806 686.326 911.714 688.769 900.628 697.662 894.014 710.981 893.631 725.188L893.625 725.446 893.619 725.608 894.075 725.446 903.87 721.945C912.654 722.719 921.317 719.488 927.449 713.153 931.407 708.979 934.121 703.609 936.746 698.415 937.514 696.901 938.301 695.34 939.106 693.838 940.943 690.498 940.56 686.375 938.139 683.43Z" fill="#F2F2F2" transform="translate(-224.025 -172.066)"/><path d="M687.995 340.212C688.737 344.061 692.459 346.579 696.308 345.837 696.719 345.757 697.121 345.642 697.512 345.492L726.787 379.548 730.493 366.976 701.469 335.819C699.815 332.242 695.574 330.683 691.997 332.338 689.003 333.722 687.349 336.978 687.995 340.212Z" fill="#FFB8B8" transform="translate(-224.025 -172.066)"/><path d="M581.955 545.239 572.267 545.239 567.658 507.87 581.957 507.87 581.955 545.239Z" fill="#FFB6B6"/><path d="M805.721 714.141 795.377 709.933 795.081 709.812 789.37 714.141C782.655 714.142 777.212 719.585 777.211 726.3L777.211 726.695 808.448 726.695 808.448 714.141Z" fill="#2F2E41" transform="translate(-224.025 -172.066)"/><path d="M651.067 545.239 641.379 545.239 636.77 507.87 651.069 507.87 651.067 545.239Z" fill="#FFB6B6"/><path d="M874.833 714.141 864.489 709.933 864.193 709.812 858.482 714.141C851.767 714.142 846.324 719.585 846.323 726.3L846.323 726.695 877.56 726.695 877.56 714.141Z" fill="#2F2E41" transform="translate(-224.025 -172.066)"/><path d="M852.227 494.155C852.227 494.155 864.378 506.797 864.378 517.185 864.378 527.572 861.34 541.835 864.378 544.956 867.416 548.078 871.213 551.875 866.657 556.432 862.1 560.989 859.821 563.267 862.859 566.305 865.897 569.343 864.378 622.506 864.378 622.506L880.327 693.897 860.234 693.897 834.759 622.506 827.923 563.267 805.818 620.228 808.259 694.509 787.253 693.896 778.558 614.911C778.558 614.911 791.469 539.777 789.19 537.852 786.912 535.926 789.19 532.039 789.19 532.039L795.266 503.269Z" fill="#2F2E41" transform="translate(-224.025 -172.066)"/><path d="M828.435 404.522C828.435 404.522 832.567 388.241 813.531 383.573 794.496 378.905 740.082 372.907 740.082 372.907L712.583 343.727 703.265 357.259 734.092 395.568 807.135 410.571Z" fill="#3F3D56" transform="translate(-224.025 -172.066)"/><path d="M707.794 356.262C708.648 355.156 709.316 353.918 709.772 352.597L713.716 342.906 712.692 342.864C707.14 341.819 701.791 345.473 700.747 351.026 700.675 351.407 700.625 351.792 700.597 352.179 700.468 353.423 700.691 354.678 701.241 355.8 701.81 356.929 702.885 357.717 704.132 357.92 705.55 357.996 706.916 357.377 707.794 356.262Z" fill="#E6E6E6" transform="translate(-224.025 -172.066)"/><path d="M791.388 507.149 789.11 523.665C789.11 523.665 793.666 528.559 795.945 527.947 798.223 527.336 806.577 523.775 806.577 523.775 806.577 523.775 816.451 529.171 821.767 529.782 827.083 530.394 855.184 526.724 855.943 524.889 856.703 523.054 865.53 515.87 865.53 515.87L862.019 494.915Z" fill="#E6E6E6" transform="translate(-224.025 -172.066)"/><path d="M865.383 449.369C865.383 449.369 863.454 465.295 864.973 466.761 866.492 468.219 863.454 477.447 860.417 483.523 857.379 489.598 862.695 490.358 862.695 494.915 862.695 499.472 864.973 516.18 864.973 516.18 864.973 516.18 841.43 517.699 837.632 513.901 833.835 510.104 827.759 513.142 819.405 521.496 811.051 529.85 792.907 523.015 789.11 519.218 785.312 515.42 792.064 501.75 794.342 499.099 796.621 496.449 792.147 499.517 789.869 491.117 787.591 482.718 792.064 483.523 795.861 479.725 799.659 475.928 795.861 469.093 792.823 462.257 789.785 455.422 792.064 404.537 792.064 392.386 792.064 380.234 808.772 378.715 808.772 378.715L815.387 370.399 820.248 364.285 829.772 363.906 830.022 363.898 839.235 363.526 843.708 368.736 853.581 380.234 864.973 382.513C874.087 385.551 871.809 404.537 871.809 404.537Z" fill="#3F3D56" transform="translate(-224.025 -172.066)"/><circle cx="605.277" cy="169.023" r="19.5225" fill="#FFB6B6"/><path d="M851.938 334.521C846.568 331.228 847.256 322.618 842.082 319.611 836.863 316.603 830.503 316.335 825.05 318.896 821.406 317.337 817.04 318.581 814.125 321.396 811.21 324.211 809.631 328.365 809.166 332.541 808.83 336.738 809.132 340.961 810.06 345.067 810.35 343.417 810.639 341.767 810.929 340.118L826.319 336.754C824.957 337.978 823.594 339.202 822.232 340.426 829.202 342.013 836.515 340.869 842.668 337.23 849.368 340.234 848.154 346.979 842.272 355.931 844.551 359.729 858.056 338.273 851.938 334.521Z" fill="#2F2E41" transform="translate(-224.025 -172.066)"/><path d="M843.708 368.736C843.664 368.771 843.619 368.804 843.571 368.835 841.962 369.794 840.121 370.293 838.247 370.278 835.796 370.482 833.361 369.719 831.465 368.151 830.47 367.209 826.514 369.199 823.916 370.3 821.192 371.43 818.137 371.465 815.387 370.399L820.248 364.285 828.259 362.509 830.259 362.509 839.235 363.526Z" fill="#E6E6E6" transform="translate(-224.025 -172.066)"/><path d="M974.791 727.627 703.041 727.934C702.383 727.938 701.847 727.407 701.844 726.75 701.841 726.092 702.371 725.556 703.028 725.553L703.041 725.553 974.791 725.245C975.448 725.249 975.979 725.784 975.976 726.442 975.972 727.095 975.444 727.623 974.791 727.627Z" fill="#CACACA" transform="translate(-224.025 -172.066)"/><path d="M425.383 155.694 423.383 155.694 423.383 12.651 502.04 12.651 502.04 14.651 425.383 14.651 425.383 155.694Z" fill="#3F3D56"/><path d="M787.237 172.066 734.237 172.066C727.058 172.066 721.237 177.886 721.237 185.066 721.237 192.246 727.058 198.066 734.237 198.066L787.237 198.066C794.417 198.066 800.237 192.246 800.237 185.066 800.237 177.886 794.417 172.066 787.237 172.066Z" fill="#7670DC" transform="translate(-224.025 -172.066)"/><circle cx="423.223" cy="156.834" r="11.9459" fill="#7670DC"/><path d="M503.297 373.788 555.703 361.661 570.745 358.18C572.627 357.745 571.845 354.848 569.963 355.283L517.557 367.41 502.514 370.892C500.632 371.327 501.414 374.224 503.296 373.788Z" fill="#F2F2F2" transform="translate(-224.025 -172.066)"/><path d="M557.413 342.206 585.468 355.111C586.425 355.442 587.322 355.928 588.122 356.548 588.897 357.307 588.333 358.036 587.701 358.697 585.813 360.46 583.819 362.106 581.73 363.626L569.777 373.343C568.277 374.563 570.394 376.692 571.88 375.483L582.291 367.02 587.496 362.788C588.97 361.589 590.765 360.366 591.358 358.456 592.603 354.443 587.69 352.848 584.959 351.592L572.742 345.972 558.94 339.623C557.201 338.823 555.66 341.399 557.413 342.206Z" fill="#F2F2F2" transform="translate(-224.025 -172.066)"/><path d="M944.566 440.449C939.568 437.061 933.496 435.802 927.561 435.375 920.815 435.007 914.054 435.015 907.309 435.398 900.303 435.676 893.31 436.183 886.332 436.919 879.364 437.657 872.425 438.623 865.516 439.818 859.33 440.781 853.208 442.121 847.185 443.831 841.484 445.408 836.114 448.001 831.333 451.485 827.136 454.642 823.909 458.912 822.018 463.81 820.161 468.405 819.846 473.477 821.118 478.266 821.796 480.593 822.957 482.75 824.526 484.597 826.339 486.623 828.486 488.324 830.874 489.623 835.832 492.454 841.45 494.156 845.934 497.781 847.117 498.729 848.195 499.801 849.149 500.978 849.798 501.889 850.694 502.594 851.732 503.01 853.743 503.712 855.979 503.137 857.401 501.55 858.299 500.321 859.048 498.99 859.631 497.584L861.997 493.02C862.155 492.621 862.353 492.238 862.589 491.879 862.766 491.667 862.449 491.883 862.509 491.828 862.543 491.797 862.611 491.798 862.649 491.773 862.845 491.676 863.049 491.598 863.26 491.539 865.448 490.705 867.646 489.897 869.854 489.115 878.003 486.21 886.251 483.533 894.628 481.365 898.939 480.209 903.312 479.294 907.725 478.625 913.44 477.811 919.243 477.906 924.984 477.349 931.166 476.75 937.545 475.499 942.846 472.095 947.23 469.431 950.606 465.389 952.448 460.602 953.247 458.321 953.52 455.888 953.249 453.486 952.56 448.052 949.01 443.462 944.566 440.449Z" fill="#E6E6E6" transform="translate(-224.025 -172.066)"/><path d="M934.337 443.503C929.82 440.441 924.333 439.303 918.97 438.917 912.874 438.585 906.764 438.593 900.669 438.939 894.337 439.189 888.019 439.648 881.713 440.313 875.416 440.979 869.145 441.853 862.901 442.933 857.311 443.803 851.779 445.014 846.336 446.559 841.184 447.984 836.331 450.328 832.011 453.476 828.219 456.328 825.302 460.187 823.593 464.614 821.916 468.765 821.63 473.349 822.78 477.677 823.393 479.779 824.443 481.729 825.86 483.398 827.498 485.229 829.438 486.766 831.597 487.94 836.077 490.498 841.153 492.037 845.206 495.312 846.275 496.169 847.249 497.137 848.111 498.201 848.698 499.024 849.508 499.661 850.445 500.037 852.263 500.672 854.283 500.152 855.568 498.718 856.38 497.608 857.056 496.404 857.584 495.134L859.722 491.009C859.865 490.649 860.044 490.303 860.256 489.978 860.416 489.787 860.13 489.982 860.185 489.932 860.215 489.904 860.276 489.905 860.311 489.883 860.488 489.795 860.673 489.724 860.863 489.672 862.84 488.918 864.827 488.187 866.822 487.481 874.186 484.856 881.639 482.437 889.21 480.477 893.105 479.432 897.057 478.606 901.044 478.001 906.21 477.266 911.453 477.351 916.642 476.848 922.228 476.307 927.992 475.176 932.783 472.1 936.744 469.693 939.795 466.04 941.46 461.714 942.181 459.653 942.429 457.455 942.184 455.284 941.561 450.373 938.352 446.226 934.337 443.503Z" fill="#FFFFFF" transform="translate(-224.025 -172.066)"/><path d="M924.877 449.033 851.276 462.607C850.392 462.776 849.539 462.196 849.371 461.313 849.202 460.43 849.782 459.577 850.665 459.408 850.669 459.408 850.672 459.407 850.675 459.406L850.685 459.405 924.286 445.83C925.17 445.667 926.02 446.251 926.183 447.136 926.346 448.02 925.761 448.87 924.877 449.033Z" fill="#E6E6E6" transform="translate(-224.025 -172.066)"/><path d="M926.69 458.862 853.089 472.437C852.205 472.605 851.353 472.026 851.184 471.142 851.016 470.259 851.595 469.406 852.479 469.238 852.482 469.237 852.485 469.237 852.488 469.236L852.498 469.234 926.099 455.659C926.983 455.496 927.833 456.081 927.996 456.965 928.159 457.85 927.574 458.699 926.69 458.862Z" fill="#E6E6E6" transform="translate(-224.025 -172.066)"/><path d="M863.479 480.684 854.902 482.266C854.017 482.426 853.169 481.838 853.01 480.953 852.85 480.073 853.432 479.229 854.311 479.064L862.888 477.482C863.773 477.321 864.62 477.908 864.781 478.793 864.941 479.674 864.359 480.52 863.479 480.684Z" fill="#E6E6E6" transform="translate(-224.025 -172.066)"/><circle cx="856.01" cy="514.742" r="6.9213" fill="#D1D3D4" transform="matrix(0.983413 -0.181378 0.181378 0.983413 -303.19 -8.26639)"/><path d="M476.366 370.688 413.5 370.688C407.423 370.681 402.499 365.757 402.492 359.681L402.492 318.248C402.499 312.172 407.423 307.247 413.5 307.24L476.366 307.24C482.442 307.247 487.366 312.172 487.374 318.248L487.374 359.681C487.366 365.757 482.442 370.681 476.366 370.688Z" fill="#E6E6E6" transform="translate(-224.025 -172.066)"/><path d="M469.457 368.456 414.744 368.456C409.455 368.45 405.17 364.164 405.164 358.876L405.164 322.816C405.17 317.528 409.455 313.242 414.744 313.236L469.457 313.236C474.746 313.242 479.031 317.528 479.038 322.817L479.038 358.876C479.031 364.164 474.746 368.45 469.457 368.456Z" fill="#FFFFFF" transform="translate(-224.025 -172.066)"/><path d="M485.221 408.017 404.555 408.017C403.515 408.014 402.675 407.17 402.677 406.13 402.679 405.094 403.519 404.255 404.555 404.252L485.221 404.252C486.26 404.255 487.101 405.099 487.098 406.139 487.096 407.175 486.257 408.014 485.221 408.017Z" fill="#E6E6E6" transform="translate(-224.025 -172.066)"/><path d="M485.221 397.261 404.555 397.261C403.515 397.259 402.675 396.414 402.677 395.375 402.679 394.339 403.519 393.499 404.555 393.497L485.221 393.497C486.26 393.499 487.101 394.344 487.098 395.383 487.096 396.419 486.257 397.259 485.221 397.261Z" fill="#E6E6E6" transform="translate(-224.025 -172.066)"/><path d="M485.221 418.772 404.555 418.772C403.515 418.772 402.673 417.929 402.673 416.89 402.673 415.85 403.515 415.008 404.555 415.008L485.221 415.008C486.26 415.008 487.103 415.85 487.103 416.89 487.103 417.929 486.26 418.772 485.221 418.772Z" fill="#E6E6E6" transform="translate(-224.025 -172.066)"/><path d="M485.221 429.527 404.555 429.527C403.515 429.527 402.673 428.685 402.673 427.645 402.673 426.606 403.515 425.763 404.555 425.763L485.221 425.763C486.26 425.763 487.103 426.606 487.103 427.645 487.103 428.685 486.26 429.527 485.221 429.527Z" fill="#E6E6E6" transform="translate(-224.025 -172.066)"/><path d="M485.221 440.283 404.555 440.283C403.515 440.283 402.673 439.44 402.673 438.401 402.673 437.361 403.515 436.518 404.555 436.518L485.221 436.518C486.26 436.518 487.103 437.361 487.103 438.401 487.103 439.44 486.26 440.283 485.221 440.283Z" fill="#E6E6E6" transform="translate(-224.025 -172.066)"/><path d="M485.221 451.038 404.555 451.038C403.515 451.036 402.675 450.191 402.677 449.152 402.679 448.116 403.519 447.276 404.555 447.274L485.221 447.274C486.26 447.276 487.101 448.121 487.098 449.16 487.096 450.197 486.257 451.036 485.221 451.038Z" fill="#E6E6E6" transform="translate(-224.025 -172.066)"/><path d="M216.83 254.306 218.83 254.306 218.83 331.349 74.173 331.349 74.173 329.349 216.83 329.349 216.83 254.306Z" fill="#3F3D56"/><path d="M237.025 516.066 290.025 516.066C297.204 516.066 303.025 510.246 303.025 503.066 303.025 495.886 297.204 490.066 290.025 490.066L237.025 490.066C229.845 490.066 224.025 495.886 224.025 503.066 224.025 510.246 229.845 516.066 237.025 516.066Z" fill="#7670DC" transform="translate(-224.025 -172.066)"/><circle cx="219.223" cy="248.166" r="11.9459" fill="#7670DC"/><path d="M504.992 423.551C522.531 427.279 518.07 428.006 535.608 431.734L550.711 434.943C552.6 435.345 553.117 432.389 551.227 431.988 533.689 428.26 538.15 427.533 520.612 423.805L505.509 420.595C503.62 420.194 503.102 423.149 504.992 423.551Z" fill="#F2F2F2" transform="translate(-224.025 -172.066)"/><path d="M545.388 414.829 565.349 438.391C566.077 439.096 566.684 439.916 567.147 440.817 567.528 441.832 566.708 442.254 565.856 442.585 563.399 443.384 560.896 444.032 558.36 444.525L543.419 448.273C541.543 448.744 542.561 451.568 544.419 451.102L557.432 447.837 563.939 446.205C565.782 445.743 567.927 445.394 569.271 443.914 572.097 440.805 568.32 437.28 566.377 434.987L557.685 424.726 547.865 413.135C546.628 411.674 544.141 413.357 545.388 414.829Z" fill="#F2F2F2" transform="translate(-224.025 -172.066)"/><circle cx="384.653" cy="317.695" r="27.78" fill="#E6E6E6"/><circle cx="381.945" cy="320.814" r="21.1193" fill="#FFFFFF"/><path d="M602.18 507.338C601.208 507.338 600.292 506.88 599.708 506.102L592.13 495.997C591.105 494.632 591.381 492.695 592.745 491.67 594.11 490.646 596.047 490.921 597.072 492.286L597.074 492.289 602.032 498.899 614.767 479.797C615.712 478.376 617.63 477.99 619.051 478.935 620.472 479.88 620.859 481.798 619.914 483.219 619.912 483.221 619.911 483.223 619.909 483.226L604.752 505.962C604.195 506.797 603.269 507.309 602.266 507.337 602.237 507.338 602.209 507.338 602.18 507.338Z" fill="#E6E6E6" transform="translate(-224.025 -172.066)"/><path d="M868.075 518.379C871.454 516.392 872.583 512.042 870.596 508.663 870.384 508.302 870.141 507.962 869.869 507.644L892.175 468.666 879.087 469.377 859.429 507.149C856.612 509.905 856.561 514.423 859.317 517.24 861.623 519.598 865.244 520.068 868.076 518.379Z" fill="#FFB8B8" transform="translate(-224.025 -172.066)"/><path d="M842.951 381.753C842.951 381.753 866.576 374.159 872.652 392.386 878.727 410.613 899.152 459.979 899.152 459.979L877.208 504.788 867.335 494.155 877.887 463.017 847.508 417.448Z" fill="#3F3D56" transform="translate(-224.025 -172.066)"/><path d="M877.961 500.212C877.25 499.009 876.348 497.929 875.29 497.016L867.752 489.761 867.333 490.696C864.304 495.465 865.716 501.787 870.486 504.816 870.813 505.024 871.152 505.213 871.501 505.382 872.608 505.963 873.856 506.221 875.103 506.126 876.362 506.017 877.493 505.311 878.144 504.227 878.74 502.939 878.671 501.441 877.961 500.212Z" fill="#E6E6E6" transform="translate(-224.025 -172.066)"/><path d="M384.412 355.068 382.412 355.068 382.412 432.111 450.069 432.111 450.069 430.111 384.412 430.111 384.412 355.068Z" fill="#3F3D56"/><path d="M748.267 603.828C748.26 596.651 742.443 590.835 735.267 590.828L682.267 590.828C675.087 590.828 669.267 596.648 669.267 603.828 669.267 611.008 675.087 616.828 682.267 616.828L735.267 616.828C742.443 616.821 748.26 611.005 748.267 603.828Z" fill="#7670DC" transform="translate(-224.025 -172.066)"/><circle cx="382.019" cy="348.928" r="11.9459" fill="#7670DC"/></svg>