<svg width="25" height="30" xmlns="http://www.w3.org/2000/svg" xmlns:xlink="http://www.w3.org/1999/xlink" overflow="hidden"><defs><clipPath id="clip0"><rect x="1001" y="122" width="25" height="30"/></clipPath><clipPath id="clip1"><rect x="1002" y="122" width="23" height="29"/></clipPath><clipPath id="clip2"><rect x="1002" y="122" width="23" height="29"/></clipPath></defs><g clip-path="url(#clip0)" transform="translate(-1001 -122)"><g clip-path="url(#clip1)"><g clip-path="url(#clip2)"><path d="M28.5831 23.9729 28.5831 27.6611C28.5831 28.1682 28.1682 28.5831 27.6611 28.5831L9.22036 28.5831C8.71324 28.5831 8.29832 28.1682 8.29832 27.6611L8.29832 23.9729C8.29832 23.4658 8.71324 23.0509 9.22036 23.0509 9.72748 23.0509 10.1424 23.4658 10.1424 23.9729L10.1424 26.739 26.739 26.739 26.739 23.9729C26.739 23.4658 27.154 23.0509 27.6611 23.0509 28.1682 23.0509 28.5831 23.4658 28.5831 23.9729ZM15.4075 6.18712 17.5189 4.06644 17.5189 23.9729C17.5189 24.4801 17.9338 24.895 18.4409 24.895 18.948 24.895 19.363 24.4801 19.363 23.9729L19.363 4.06644 21.4744 6.17785C21.6588 6.36226 21.8893 6.45446 22.1291 6.45446 22.3689 6.45446 22.5994 6.36226 22.7838 6.18711 23.1433 5.82756 23.1433 5.24653 22.7838 4.88699L19.0956 1.19885C19.0864 1.18959 19.0771 1.18959 19.068 1.18032 18.9851 1.10665 18.9022 1.04202 18.8007 0.995917 18.7914 0.995917 18.7822 0.995917 18.7731 0.986655 18.6809 0.949815 18.5795 0.931291 18.4872 0.931291 18.4597 0.931291 18.4226 0.931291 18.395 0.940552 18.3121 0.949814 18.2382 0.959075 18.1645 0.986654 18.137 0.995916 18.1092 1.00518 18.0816 1.01423 17.9801 1.06033 17.8879 1.1157 17.805 1.19864L14.1168 4.88678C13.7573 5.24634 13.7573 5.82737 14.1168 6.18691 14.4762 6.54666 15.0479 6.54666 15.4075 6.18711ZM28.5831 10.1426C28.5831 10.0228 28.5555 9.90283 28.5094 9.79232 28.4172 9.57107 28.2328 9.38666 28.0116 9.29446 27.9008 9.24815 27.7809 9.22058 27.6611 9.22058L23.9729 9.22058C23.4658 9.22058 23.0509 9.63549 23.0509 10.1426 23.0509 10.6497 23.4658 11.0646 23.9729 11.0646L25.4389 11.0646 23.3275 13.1761C23.1524 13.3512 23.0509 13.5817 23.0509 13.8308L23.0509 21.207C23.0509 21.7142 23.4658 22.1291 23.9729 22.1291 24.4801 22.1291 24.895 21.7142 24.895 21.207L24.895 14.2091 26.739 12.365 26.739 13.831C26.739 14.3381 27.154 14.753 27.6611 14.753 28.1682 14.753 28.5831 14.3381 28.5831 13.831ZM9.22036 14.7528C9.72748 14.7528 10.1424 14.3379 10.1424 13.8307L10.1424 12.3648 11.9865 14.2088 11.9865 21.2068C11.9865 21.7139 12.4014 22.1289 12.9085 22.1289 13.4156 22.1289 13.8305 21.7139 13.8305 21.2068L13.8305 13.8305C13.8305 13.5815 13.7291 13.351 13.5632 13.1758L11.4425 11.0644 12.9085 11.0644C13.4156 11.0644 13.8305 10.6495 13.8305 10.1424 13.8305 9.63527 13.4156 9.22036 12.9085 9.22036L9.22035 9.22036C9.10057 9.22036 8.98058 9.24794 8.87006 9.29404 8.64881 9.38624 8.46441 9.57065 8.3722 9.79189 8.32589 9.90262 8.29832 10.0226 8.29832 10.1424L8.29832 13.8305C8.29832 14.3377 8.71323 14.7526 9.22035 14.7526Z" fill="#8FA6FF" transform="matrix(1 0 0 1.01641 995.136 121.427)"/></g></g></g></svg>