<svg width="37" height="30" xmlns="http://www.w3.org/2000/svg" xmlns:xlink="http://www.w3.org/1999/xlink" overflow="hidden"><defs><clipPath id="clip0"><rect x="833" y="538" width="37" height="30"/></clipPath><clipPath id="clip1"><rect x="834" y="539" width="35" height="28"/></clipPath><clipPath id="clip2"><rect x="834" y="539" width="35" height="28"/></clipPath></defs><g clip-path="url(#clip0)" transform="translate(-833 -538)"><g clip-path="url(#clip1)"><g clip-path="url(#clip2)"><path d="M26.6128 30.2397 11.2965 30.2397C9.40453 30.2397 7.85789 28.7402 7.85789 26.8876L7.85815 11.0693C7.85815 9.22439 9.39685 7.71725 11.2968 7.71725L30.8994 7.71725C32.7914 7.71725 34.338 9.21679 34.338 11.0693L34.338 19.5949C34.338 20.0188 33.9848 20.3642 33.545 20.3642 33.1053 20.3642 32.752 20.0189 32.752 19.5949L32.752 11.0693C32.752 10.0724 31.9199 9.26382 30.8916 9.26382L11.297 9.26382C10.2764 9.26382 9.43661 10.0724 9.43661 11.0693L9.43661 26.8876C9.43661 27.8846 10.2688 28.6931 11.297 28.6931L26.6134 28.6934C27.0531 28.6934 27.4064 29.0388 27.4064 29.4628 27.4064 29.8868 27.0531 30.2322 26.6134 30.2322Z" fill="#8FA6FF" transform="matrix(1.00943 0 0 1 827.331 532.72)"/><path d="M33.3094 30.1691C33.0897 30.1691 32.8697 30.1141 32.6657 30.0121 32.2184 29.7845 31.9435 29.3293 31.9435 28.8425L31.9435 25.5923C31.9435 25.0976 32.2181 24.6503 32.6657 24.4226 33.1131 24.1871 33.6469 24.2184 34.0709 24.4934L36.5675 26.1182C36.9444 26.3695 37.172 26.7777 37.172 27.2251 37.172 27.6724 36.9444 28.0807 36.5675 28.3319L34.0709 29.9568C33.8433 30.1059 33.5762 30.1844 33.3095 30.1844ZM33.5213 25.9769 33.5213 28.4498 35.4133 27.2173 33.5213 25.9848Z" fill="#8FA6FF" transform="matrix(1.00943 0 0 1 827.331 532.72)"/><path d="M26.6996 26.0241 18.0012 26.0241C17.5614 26.0241 17.2082 25.6787 17.2082 25.2547 17.2082 24.8307 17.5614 24.4853 18.0012 24.4853L26.6996 24.4853C27.1394 24.4853 27.4926 24.8307 27.4926 25.2547 27.4926 25.6786 27.1394 26.0241 26.6996 26.0241Z" fill="#8FA6FF" transform="matrix(1.00943 0 0 1 827.331 532.72)"/><path d="M14.6098 23.0956C13.6599 23.0956 12.8592 23.6765 12.5372 24.485L11.3048 24.485C10.8729 24.485 10.5118 24.8304 10.5118 25.2544 10.5118 25.6784 10.865 26.0238 11.3048 26.0238L12.5372 26.0238C12.8435 26.8402 13.6599 27.4211 14.6098 27.4211 15.8265 27.4211 16.8235 26.4478 16.8235 25.2545 16.8235 24.0612 15.8265 23.0957 14.6098 23.0957ZM14.6098 25.8747C14.2565 25.8747 13.9661 25.6001 13.9661 25.2547 13.9661 24.9093 14.2487 24.6422 14.6098 24.6422 14.971 24.6422 15.2456 24.9169 15.2456 25.2547 15.2456 25.5922 14.9631 25.8747 14.6098 25.8747Z" fill="#8FA6FF" transform="matrix(1.00943 0 0 1 827.331 532.72)"/><path d="M18.9352 19.3429 24.7131 19.3429C25.1683 19.3429 25.5531 18.9975 25.5844 18.5578L26.2281 14.46 26.2281 14.358C26.236 13.887 25.8512 13.5025 25.3647 13.5025L18.2051 13.5025 17.7577 12.0424 16.2032 12.0424C15.8342 12.0424 15.528 12.3249 15.528 12.6861 15.528 13.0472 15.8263 13.3377 16.2032 13.3377L16.7607 13.3377 18.2524 18.1893C17.7501 18.4327 17.3968 18.9429 17.3968 19.5317 17.3968 20.1205 17.7188 20.5915 18.1974 20.8507 18.1582 20.9685 18.1425 21.0783 18.1425 21.204 18.1425 21.997 18.8098 22.6407 19.6184 22.6407 20.4269 22.6407 21.1022 21.997 21.1022 21.204 21.1022 21.149 21.1022 21.0941 21.0864 21.0392L22.9235 21.0392C22.9077 21.0941 22.9077 21.149 22.9077 21.204 22.9077 21.997 23.5829 22.6407 24.3915 22.6407 25.2 22.6407 25.8674 21.997 25.8674 21.204 25.8674 20.4661 25.3099 19.8537 24.58 19.783L24.5563 19.783C24.4935 19.7594 24.4307 19.7439 24.36 19.7439L18.9432 19.7439C18.8333 19.7439 18.739 19.6498 18.739 19.5475 18.739 19.4455 18.833 19.3512 18.9353 19.3512ZM24.3911 21.0701C24.4618 21.0701 24.5246 21.1329 24.5246 21.2115 24.5246 21.3605 24.2499 21.3605 24.2499 21.2115 24.2499 21.1329 24.3128 21.0701 24.3914 21.0701ZM19.4845 21.2115C19.4845 21.1329 19.5473 21.0701 19.618 21.0701 19.6966 21.0701 19.7594 21.1329 19.7594 21.2115 19.7594 21.3605 19.4848 21.3605 19.4848 21.2115ZM18.6053 14.8214 24.8072 14.8214 24.3125 18.04 19.6023 18.04Z" fill="#8FA6FF" transform="matrix(1.00943 0 0 1 827.331 532.72)"/><path d="M34.2434 33.6311C31.2367 33.6311 28.6148 31.645 27.8689 28.7952 27.7274 28.2456 27.657 27.7117 27.657 27.2095 27.657 23.6689 30.6166 20.7878 34.2435 20.7878 37.8702 20.7878 40.8299 23.6689 40.8299 27.2095 40.8299 30.334 38.5376 32.9874 35.3895 33.5213 34.9734 33.592 34.5965 33.6311 34.2432 33.6311ZM34.2434 22.3346C31.4801 22.3346 29.2348 24.5249 29.2348 27.2096 29.2348 27.5942 29.2898 27.9869 29.3996 28.4185 29.9647 30.5772 31.9511 32.0926 34.2434 32.0926 34.5025 32.0926 34.7851 32.0613 35.1147 32.0061 37.509 31.5979 39.2519 29.5881 39.2519 27.2094 39.2519 24.5168 37.0067 22.3344 34.2433 22.3344Z" fill="#8FA6FF" transform="matrix(1.00943 0 0 1 827.331 532.72)"/><path d="M2.62952-0.156656C2.49416-0.0864732 2.35301-0.0336445 2.20581 0.00210615 2.05862 0.0378568 1.90538 0.0557275 1.74635 0.0557275 1.26955 0.0557275 0.89185-0.0772761 0.612936-0.343801 0.334582-0.610064 0.195535-0.971481 0.195535-1.42776 0.195535-1.88459 0.334582-2.24627 0.612936-2.5128 0.891816-2.77986 1.26953-2.91338 1.74635-2.91338 1.90538-2.91338 2.05862-2.8955 2.20581-2.85976 2.35301-2.82401 2.49416-2.77065 2.62952-2.69994L2.62952-2.10801C2.49285-2.20106 2.35774-2.26939 2.22474-2.31303 2.09226-2.3564 1.95243-2.37822 1.80523-2.37822 1.54239-2.37822 1.33526-2.29358 1.18386-2.12483 1.03298-1.95661 0.957806-1.72426 0.957806-1.42779 0.957806-1.13261 1.03298-0.900516 1.18386-0.731748 1.33526-0.563525 1.54238-0.479414 1.80523-0.479414 1.95243-0.479414 2.09226-0.500967 2.22474-0.5446 2.35774-0.58797 2.49285-0.656314 2.62952-0.749623Z" fill="#8FA6FF" transform="matrix(1.00943 0 0 1 832.085 582.177)"/><path d="M1.07871-2.75569 1.07871-2.14588 1.78632-2.14588 1.78632-1.65594 1.07871-1.65594 1.07871-0.745449C1.07871-0.645827 1.09816-0.578538 1.13759-0.543581 1.17754-0.50836 1.25639-0.491012 1.37415-0.491012L1.72637-0.491012 1.72637-1.00934e-05 1.13864-1.00934e-05C0.867383-1.00934e-05 0.675239-0.0562597 0.562476-0.169283 0.449451-0.282833 0.393204-0.474714 0.393204-0.745445L0.393204-1.65593 0.0515031-1.65593 0.0515031-2.14588 0.393204-2.14588 0.393204-2.75569Z" fill="#8FA6FF" transform="matrix(1.00943 0 0 1 842.308 582.177)"/><path d="M1.78949-1.83255 1.78949-2.98171 2.48028-2.98171 2.48028 0 1.78949 0 1.78949-0.310162C1.69539-0.183995 1.5913-0.0914728 1.47722-0.0325948 1.36367 0.0262831 1.23225 0.0557221 1.08295 0.0557221 0.818525 0.0557221 0.601416-0.0494171 0.431088-0.259696 0.26129-0.469974 0.176654-0.740442 0.176654-1.07134 0.176654-1.402 0.26129-1.67273 0.431088-1.88298 0.60141-2.09326 0.818525-2.1984 1.08295-2.1984 1.23067-2.1984 1.36183-2.16843 1.47617-2.10903 1.59104-2.04936 1.69539-1.9571 1.78949-1.83251ZM1.33738-0.442628C1.48458-0.442628 1.59655-0.496249 1.67383-0.603489 1.75084-0.710734 1.78949-0.866603 1.78949-1.07136 1.78949-1.27586 1.75085-1.43199 1.67383-1.53922 1.59655-1.64647 1.48458-1.70009 1.33738-1.70009 1.1915-1.70009 1.08006-1.64646 1.00304-1.53922 0.925763-1.43198 0.887382-1.27585 0.887382-1.07136 0.887382-0.866596 0.925757-0.710728 1.00304-0.603489 1.08005-0.496244 1.1915-0.442628 1.33738-0.442628Z" fill="#8FA6FF" transform="matrix(1.00943 0 0 1 846.889 582.177)"/><path d="M1.47195-0.442634C1.61836-0.442634 1.73006-0.496256 1.80734-0.603496 1.88514-0.710741 1.92405-0.866609 1.92405-1.07136 1.92405-1.27586 1.88515-1.43199 1.80734-1.53923 1.73007-1.64648 1.61836-1.70009 1.47195-1.70009 1.32475-1.70009 1.21173-1.64595 1.1334-1.53818 1.05481-1.43015 1.01565-1.27454 1.01565-1.07136 1.01565-0.867922 1.05481-0.712316 1.1334-0.604545 1.21174-0.496513 1.32476-0.442634 1.47195-0.442634ZM1.01565-1.83256C1.11027-1.95715 1.21488-2.04941 1.33002-2.10908 1.44488-2.16848 1.57709-2.19844 1.72639-2.19844 1.99134-2.19844 2.20845-2.0933 2.37825-1.88302 2.54779-1.67275 2.63269-1.40202 2.63269-1.07138 2.63269-0.740456 2.54779-0.469987 2.37825-0.259743 2.20845-0.0494642 1.99134 0.055675 1.72639 0.055675 1.57709 0.055675 1.44488 0.0257105 1.33002-0.0336916 1.21489-0.0930951 1.11028-0.185355 1.01565-0.310209L1.01565-4.71024e-05 0.330107-4.71024e-05 0.330107-2.98176 1.01565-2.98176Z" fill="#8FA6FF" transform="matrix(1.00943 0 0 1 851.105 582.177)"/></g></g></g></svg>