<svg width="24" height="24" viewBox="0 0 24 24" xmlns="http://www.w3.org/2000/svg" xmlns:xlink="http://www.w3.org/1999/xlink" fill="none" overflow="hidden"><path d="M12 18C15.3137 18 18 15.3137 18 12 18 8.68629 15.3137 6 12 6 8.68629 6 6 8.68629 6 12 6 15.3137 8.68629 18 12 18Z" fill="#8FA6FF"/><path d="M12 2C6.477 2 2 6.477 2 12 2 17.523 6.477 22 12 22 17.523 22 22 17.523 22 12 22 6.477 17.523 2 12 2ZM3.5 12C3.5 7.30558 7.30558 3.5 12 3.5 16.6944 3.5 20.5 7.30558 20.5 12 20.5 16.6944 16.6944 20.5 12 20.5 7.30558 20.5 3.5 16.6944 3.5 12Z" fill="#8FA6FF"/></svg>