<svg width="24" height="24" viewBox="0 0 24 24" xmlns="http://www.w3.org/2000/svg" xmlns:xlink="http://www.w3.org/1999/xlink" fill="none" overflow="hidden"><path d="M14.754 10C15.5283 9.99958 16.2108 10.508 16.432 11.25L15.75 11.25C15.34 11.25 14.952 11.34 14.603 11.5L9.252 11.5C9.11393 11.5 9.002 11.6119 9.002 11.75L9.002 16.499C9.002 17.805 9.836 18.916 11 19.329L11 20.888C8.95337 20.4194 7.50219 18.5986 7.502 16.499L7.502 11.75C7.502 10.784 8.285 10 9.252 10L14.754 10ZM19.25 11.25C20.7641 11.25 21.9934 12.4739 22 13.988L22 11.75C22 10.7835 21.2165 10 20.25 10L16.875 10C17.167 10.353 17.372 10.78 17.459 11.25L19.25 11.25ZM3.75 10 7.131 10C6.7782 10.4261 6.56274 10.949 6.513 11.5L3.75 11.5C3.61193 11.5 3.5 11.6119 3.5 11.75L3.5 14.999C3.49977 16.3803 4.61931 17.5002 6.00058 17.5004 6.1964 17.5005 6.39154 17.4775 6.582 17.432 6.667 17.936 6.822 18.417 7.035 18.864 4.90037 19.4351 2.70698 18.1675 2.13592 16.0329 2.0457 15.6957 2.00001 15.3481 2 14.999L2 11.75C2 10.784 2.784 10 3.75 10ZM12 3C13.6569 3 15 4.34315 15 6 15 7.65685 13.6569 9 12 9 10.3431 9 9 7.65685 9 6 9 4.34315 10.3431 3 12 3ZM12 4.5C11.1716 4.5 10.5 5.17157 10.5 6 10.5 6.82843 11.1716 7.5 12 7.5 12.8284 7.5 13.5 6.82843 13.5 6 13.5 5.17157 12.8284 4.5 12 4.5ZM18.5 4C19.8807 4 21 5.11929 21 6.5 21 7.88071 19.8807 9 18.5 9 17.1193 9 16 7.88071 16 6.5 16 5.11929 17.1193 4 18.5 4ZM18.5 5.5C17.9477 5.5 17.5 5.94772 17.5 6.5 17.5 7.05228 17.9477 7.5 18.5 7.5 19.0523 7.5 19.5 7.05228 19.5 6.5 19.5 5.94772 19.0523 5.5 18.5 5.5ZM5.5 4C6.88071 4 8 5.11929 8 6.5 8 7.88071 6.88071 9 5.5 9 4.11929 9 3 7.88071 3 6.5 3 5.11929 4.11929 4 5.5 4ZM5.5 5.5C4.94772 5.5 4.5 5.94772 4.5 6.5 4.5 7.05228 4.94772 7.5 5.5 7.5 6.05228 7.5 6.5 7.05228 6.5 6.5 6.5 5.94772 6.05228 5.5 5.5 5.5ZM14 15 13.5 15C12.6716 15 12 15.6716 12 16.5L12 18 14.5 18 14.5 17.75C14.5 17.3358 14.8358 17 15.25 17 15.6642 17 16 17.3358 16 17.75L16 18 19 18 19 17.75C19 17.3358 19.3358 17 19.75 17 20.1642 17 20.5 17.3358 20.5 17.75L20.5 18 23 18 23 16.5C23 15.6716 22.3284 15 21.5 15L21 15 21 14C21 13.0335 20.2165 12.25 19.25 12.25L15.75 12.25C14.7835 12.25 14 13.0335 14 14L14 15ZM15.5 14C15.5 13.8619 15.6119 13.75 15.75 13.75L19.25 13.75C19.3881 13.75 19.5 13.8619 19.5 14L19.5 15 15.5 15 15.5 14ZM12 21.5 12 19.5 14.5 19.5 14.5 20.25C14.5 20.6642 14.8358 21 15.25 21 15.6642 21 16 20.6642 16 20.25L16 19.5 19 19.5 19 20.25C19 20.6642 19.3358 21 19.75 21 20.1642 21 20.5 20.6642 20.5 20.25L20.5 19.5 23 19.5 23 21.5C23 22.3284 22.3284 23 21.5 23L13.5 23C12.6716 23 12 22.3284 12 21.5Z" fill="#8FA6FF"/></svg>