<svg width="24" height="24" viewBox="0 0 14 14" xmlns="http://www.w3.org/2000/svg" xmlns:xlink="http://www.w3.org/1999/xlink" fill="none" overflow="hidden"><path d="M1.13907 9.08388C1.30702 10.5191 2.50065 11.65 3.93973 11.7808 4.93631 11.8714 5.95848 11.9475 7 11.9475 8.04152 11.9475 9.06369 11.8714 10.0603 11.7808 11.4994 11.65 12.693 10.5191 12.8609 9.08388 12.9407 8.402 13 7.70642 13 7 13 6.29358 12.9407 5.59799 12.8609 4.91612 12.693 3.48089 11.4994 2.34995 10.0603 2.21915 9.06369 2.12857 8.04152 2.05246 7 2.05246 5.95848 2.05246 4.93631 2.12857 3.93973 2.21915 2.50065 2.34995 1.30702 3.48089 1.13907 4.91612 1.05928 5.59799 1 6.29358 1 7 1 7.70642 1.05928 8.402 1.13907 9.08388Z" stroke="#4147D5" fill="#D7E0FF"/><path d="M6.78341 9.25991C8.00751 8.60418 9.595 7.63195 9.595 7.00001 9.595 6.36807 8.00751 5.39584 6.78341 4.74011 6.14093 4.39593 5.39037 4.8722 5.39037 5.60107L5.39037 8.39895C5.39037 9.12781 6.14093 9.60409 6.78341 9.25991Z" stroke="#4147D5" fill="#FFFFFF"/></svg>