<svg width="46" height="33" xmlns="http://www.w3.org/2000/svg" xmlns:xlink="http://www.w3.org/1999/xlink" overflow="hidden"><defs><clipPath id="clip0"><rect x="430" y="393" width="46" height="33"/></clipPath><clipPath id="clip1"><rect x="430" y="394" width="45" height="31"/></clipPath><clipPath id="clip2"><rect x="430" y="394" width="45" height="31"/></clipPath></defs><g clip-path="url(#clip0)" transform="translate(-430 -393)"><g clip-path="url(#clip1)"><g clip-path="url(#clip2)"><path d="M31.9656 11.2834C32.1937 10.5368 31.7734 9.74672 31.0267 9.51863 30.3058 9.29841 29.5389 9.68268 29.2838 10.392 28.9852 11.3319 28.7212 12.2824 28.4922 13.2416 27.1051 13.2906 25.767 13.2755 24.5966 13.1963 23.8194 13.1226 23.1296 13.6929 23.0559 14.47 22.9822 15.2472 23.5525 15.937 24.3296 16.0107 24.3544 16.0131 24.3795 16.0148 24.4044 16.0158 25.4654 16.0893 26.6471 16.11 27.8797 16.0874 27.6083 17.5292 27.4255 18.8183 27.3143 19.9773 25.0244 21.1873 23.43 22.8119 22.5292 24.5231 21.3739 26.7206 21.2853 29.3403 22.9174 31.012 23.9935 32.1126 25.571 32.2182 26.9298 31.926 27.7474 31.7412 28.5344 31.4404 29.2668 31.0327L29.3007 31.1194C29.5917 31.8439 30.4147 32.1952 31.1392 31.9042 31.8382 31.6236 32.1942 30.8439 31.9487 30.1319 31.8482 29.8629 31.7413 29.5966 31.6283 29.3328 33.822 27.3 35.3273 24.6339 35.9347 21.7056 37.1371 22.2936 37.9513 23.2811 38.3433 24.3441 38.7884 25.5437 38.7225 26.8733 38.1605 28.0229 37.58 29.2216 36.4021 30.407 34.3629 31.191 33.63 31.4596 33.2534 32.2715 33.522 33.0044 33.7905 33.7376 34.6024 34.1139 35.3354 33.8456 35.3493 33.8405 35.3631 33.835 35.3768 33.8295 37.9909 32.825 39.7681 31.1873 40.7048 29.2555 41.6026 27.4132 41.7074 25.2838 40.995 23.3622 40.194 21.2033 38.4581 19.5235 36.2739 18.7938 36.2777 18.6562 36.2796 18.5167 36.2796 18.3754 36.2932 17.5947 35.6712 16.9509 34.8906 16.9374 34.11 16.9239 33.4662 17.5457 33.4526 18.3264 32.3863 18.3244 31.3252 18.4748 30.3015 18.773 30.4221 17.9155 30.5804 16.977 30.7858 15.9461 33.0191 15.7783 35.2411 15.4711 37.0749 15.0414 37.8339 14.8584 38.3005 14.0947 38.1175 13.3359 37.9358 12.5827 37.1816 12.1162 36.4266 12.2898 34.9811 12.6291 33.2415 12.8873 31.4568 13.0531 31.617 12.4312 31.796 11.7904 31.9656 11.2815ZM25.0301 25.8386C25.4579 25.0282 26.1609 24.1688 27.1918 23.3886 27.2238 24.3158 27.3143 25.1338 27.45 25.8706 27.6271 26.8507 27.8948 27.7063 28.1775 28.4583 27.6008 28.7806 26.9864 29.0237 26.3362 29.1631 25.4221 29.3591 25.0414 29.1405 24.9377 29.035 24.4854 28.5732 24.1952 27.4274 25.032 25.8386ZM33.1624 21.1515C32.7214 23.1298 31.8069 24.9717 30.4975 26.519 30.3889 26.1392 30.2996 25.7544 30.2299 25.3656 30.0329 24.2044 29.9626 23.0252 30.0207 21.8488 30.228 21.7696 30.439 21.6943 30.6596 21.6226 31.4669 21.3463 32.3098 21.1877 33.1624 21.1515ZM15.0018 12.3068C12.1236 11.4573 9.0268 11.7734 6.37955 13.1869 5.69117 13.5551 5.43154 14.4116 5.79967 15.0999 6.1678 15.7884 7.02429 16.048 7.71268 15.6798 7.72384 15.6739 7.73492 15.6678 7.74593 15.6615 9.73501 14.6118 12.0558 14.3818 14.2122 15.0207 15.669 15.4485 16.2815 16.2269 16.5944 17.0109 16.845 17.6366 16.9242 18.3132 16.9487 18.9747 16.4398 18.8334 15.8537 18.692 15.2092 18.5789 13.0757 18.1982 10.1545 18.0833 7.44062 19.3837 4.45155 20.816 3.4263 23.7485 3.856 26.3512 4.27817 28.9068 6.14774 31.3757 9.13303 31.9129 11.8281 32.3991 14.4195 31.4304 16.2137 30.4786 16.4664 30.3452 16.7159 30.2057 16.9619 30.0602L16.9619 30.6256C16.9619 31.4063 17.5947 32.0391 18.3754 32.0391 19.156 32.0391 19.7889 31.4063 19.7889 30.6256L19.7889 19.7135C19.7889 18.8578 19.7889 17.3841 19.2235 15.963 18.5997 14.4006 17.3294 12.989 15.0075 12.3068L15.0056 12.3068ZM14.7154 21.3607C15.6257 21.5228 16.4078 21.7489 16.9581 21.9355L16.9581 26.6584C16.3035 27.1532 15.6109 27.5955 14.8869 27.9815 13.3038 28.8239 11.4022 29.4496 9.63435 29.1311 8.04182 28.8446 6.91103 27.499 6.64529 25.8895 6.38521 24.3252 6.98264 22.7365 8.66187 21.9317 10.6163 20.9969 12.8571 21.0309 14.7154 21.3607Z" fill="#4147D5" transform="matrix(1.03227 0 0 1 429.293 387.421)"/></g></g></g></svg>