<svg viewBox="0 0 48 48" xmlns="http://www.w3.org/2000/svg" xmlns:xlink="http://www.w3.org/1999/xlink" fill="none" overflow="hidden"><g><path d="M4.56198 8.68502C4.73932 6.96777 5.86521 5.60848 7.55375 5.24901 10.219 4.68162 15.2432 4 24 4 32.7568 4 37.781 4.68162 40.4463 5.24901 42.1348 5.60848 43.2607 6.96778 43.438 8.68502 43.701 11.2312 44 15.9061 44 24 44 32.0939 43.701 36.7688 43.438 39.315 43.2607 41.0322 42.1348 42.3915 40.4462 42.751 37.781 43.3184 32.7568 44 24 44 15.2432 44 10.219 43.3184 7.55375 42.751 5.86521 42.3915 4.73932 41.0322 4.56198 39.315 4.29904 36.7688 4 32.0939 4 24 4 15.9061 4.29904 11.2312 4.56198 8.68502Z" stroke="#0031EE" stroke-width="1.23077" fill="#DDE4FF"/><path d="M43.7574 13 4.24219 13C4.33927 11.1412 4.45359 9.73285 4.5618 8.68502 4.73914 6.96777 5.86503 5.60848 7.55357 5.24901 10.2188 4.68162 15.243 4 23.9998 4 32.7566 4 37.7808 4.68162 40.4461 5.24901 42.1346 5.60848 43.2605 6.96778 43.4378 8.68502 43.546 9.73285 43.6604 11.1412 43.7574 13Z" stroke="#0031EE" stroke-width="1.23077" fill="#DDE4FF" fill-rule="evenodd" clip-rule="evenodd"/><g><path d="M21.0912 30.8661C22.0933 31.3381 22.9498 32.2498 22.6678 33.321 22.5832 33.6423 22.4526 33.9412 22.2798 34.1798 21.6378 35.0662 20.4247 35.0914 19.5213 34.7172 19.1571 34.5475 18.6928 34.3118 18.1284 34.0101L12.9312 31.2848C12.1276 30.8634 11.3593 30.2788 11.1436 29.3975 11.0479 29.0066 11 28.5737 11 28.099 11 26.9768 11.249 25.7549 12.2837 25.2424L18.3625 22.0844C19.7044 21.3873 21.5574 20.9705 22.402 22.2247 22.6146 22.5405 22.7441 22.9205 22.7441 23.3758 22.7441 24.7052 21.8925 25.4147 20.8596 25.9495L15.3972 28.1838 21.0912 30.8661Z" stroke="#0031EE" stroke-width="1.23077" fill="#DDE4FF"/><path d="M26.9366 25.2132C25.9178 24.7452 25.044 23.8238 25.3375 22.7418 25.4222 22.4293 25.5509 22.1388 25.7202 21.9051 26.3845 20.9879 27.6203 20.9945 28.5333 21.4242 28.9521 21.5939 29.3982 21.8013 29.8716 22.0465L35.0449 24.7137C35.8639 25.1359 36.647 25.7278 36.8616 26.6239 36.9539 27.0092 37 27.4349 37 27.901 37 29.0496 36.7403 30.2044 35.7163 30.7576L29.7576 33.8951C28.4095 34.605 26.5185 35.0531 25.689 33.7752 25.4865 33.4633 25.3651 33.0849 25.3651 32.6242 25.3651 31.292 26.2106 30.5885 27.2497 30.0505L32.6028 27.8162 26.9366 25.2132Z" stroke="#0031EE" stroke-width="1.23077" fill="#DDE4FF"/></g></g></svg>