<svg viewBox="0 0 48 48" xmlns="http://www.w3.org/2000/svg" xmlns:xlink="http://www.w3.org/1999/xlink" fill="none" overflow="hidden"><g><path d="M39.0172 36C40.445 36 41.7942 35.2509 42.3617 33.9406 43.4158 31.5065 44 28.8215 44 26 44 14.9543 35.0457 6 24 6 12.9543 6 4 14.9543 4 26 4 28.8215 4.58424 31.5065 5.63835 33.9406 6.20576 35.2509 7.55495 36 8.98281 36L39.0172 36Z" stroke="#0031EE" stroke-width="1.23077" fill="#DDE4FF"/><path d="M29.4215 18.5303C29.5138 16.9346 27.5589 16.4016 26.8548 17.8305 25.4356 20.7105 23.6986 24.3916 22.1683 28.082 20.2934 28.6957 18.7536 30.2353 18.2059 32.3151 17.3484 35.5712 19.2475 38.918 22.4475 39.7905 25.6475 40.663 28.9367 38.7307 29.7941 35.4746 30.3418 33.3948 29.7649 31.278 28.4427 29.7926 28.9308 25.8182 29.2354 21.7465 29.4215 18.5303Z" stroke="#0031EE" stroke-width="1.23077" fill="#DDE4FF"/></g></svg>