<svg width="24" height="24" viewBox="0 0 24 24" xmlns="http://www.w3.org/2000/svg" xmlns:xlink="http://www.w3.org/1999/xlink" fill="none" overflow="hidden"><path d="M21.25 13C21.6248 13 21.942 13.2767 21.993 13.648L22 13.75 22 18.75C22.0001 20.4735 20.6548 21.8974 18.934 21.995L18.75 22 14.082 22C14.618 21.615 15.055 21.1 15.347 20.501L18.75 20.5C19.661 20.4999 20.4196 19.8009 20.494 18.893L20.5 18.75 20.5 13.75C20.5 13.3358 20.8358 13 21.25 13ZM11.75 9C13.5449 9 15 10.4551 15 12.25L15 18.75C15 20.5449 13.5449 22 11.75 22L5.25 22C3.45507 22 2 20.5449 2 18.75L2 12.25C2 10.4551 3.45507 9 5.25 9L11.75 9ZM11.75 10.5 5.25 10.5C4.2835 10.5 3.5 11.2835 3.5 12.25L3.5 18.75C3.5 19.716 4.284 20.5 5.25 20.5L11.75 20.5C12.7165 20.5 13.5 19.7165 13.5 18.75L13.5 12.25C13.5 11.2835 12.7165 10.5 11.75 10.5ZM6.061 13.103C6.17648 12.8906 6.4274 12.7912 6.657 12.867L6.739 12.903 10.695 15.061C10.9375 15.1931 11.027 15.4968 10.8949 15.7393 10.8635 15.7969 10.821 15.8478 10.77 15.889L10.695 15.939 6.739 18.097C6.49618 18.2285 6.19273 18.1383 6.06123 17.8954 6.03609 17.849 6.01847 17.7989 6.009 17.747L6 17.658 6 13.343C5.99989 13.2592 6.02086 13.1766 6.061 13.103ZM18.75 2C20.4735 1.99989 21.8974 3.34524 21.995 5.066L22 5.25 22 10.25C21.9999 10.6642 21.664 10.9999 21.2498 10.9998 20.8751 10.9997 20.5581 10.7231 20.507 10.352L20.5 10.25 20.5 5.25C20.5 4.33936 19.8016 3.58093 18.894 3.506L18.75 3.5 13.75 3.5C13.3358 3.49987 13.0001 3.16398 13.0002 2.74977 13.0003 2.37515 13.2769 2.05806 13.648 2.007L13.75 2 18.75 2ZM10.25 2C10.6642 2.00013 10.9999 2.33602 10.9998 2.75023 10.9997 3.12485 10.7231 3.44194 10.352 3.493L10.25 3.5 5.25 3.5C4.33936 3.50003 3.58093 4.19845 3.506 5.106L3.5 5.25 3.5 8.652C2.9 8.944 2.386 9.382 2 9.918L2 5.25C1.99989 3.52647 3.34524 2.10258 5.066 2.005L5.25 2 10.25 2Z" fill="#8FA6FF"/></svg>