<svg width="24" height="24" viewBox="0 0 14 14" xmlns="http://www.w3.org/2000/svg" xmlns:xlink="http://www.w3.org/1999/xlink" fill="none" overflow="hidden"><path d="M8.45345 4.41097C8.51273 4.96507 8.95839 5.41073 9.51222 5.47246 9.92358 5.51831 10.346 5.55769 10.7766 5.55769 11.2072 5.55769 11.6296 5.51831 12.0409 5.47246 12.5948 5.41073 13.0404 4.96507 13.0997 4.41097 13.1435 4.00193 13.1804 3.58198 13.1804 3.15385 13.1804 2.72571 13.1435 2.30576 13.0997 1.89672 13.0404 1.34262 12.5948 0.896966 12.0409 0.835234 11.6296 0.789382 11.2072 0.75 10.7766 0.75 10.346 0.75 9.92358 0.789382 9.51222 0.835234 8.95839 0.896966 8.51273 1.34262 8.45345 1.89672 8.40969 2.30576 8.37273 2.72571 8.37273 3.15385 8.37273 3.58198 8.40969 4.00193 8.45345 4.41097Z" stroke="#4147D5" fill="#D7E0FF"/><path d="M0.900291 4.41097C0.959572 4.96507 1.40523 5.41073 1.95906 5.47246 2.37042 5.51831 2.79279 5.55769 3.22342 5.55769 3.65405 5.55769 4.07642 5.51831 4.48778 5.47246 5.04161 5.41073 5.48727 4.96507 5.54655 4.41097 5.59031 4.00193 5.62727 3.58198 5.62727 3.15385 5.62727 2.72571 5.59031 2.30576 5.54655 1.89672 5.48727 1.34262 5.04161 0.896966 4.48778 0.835234 4.07642 0.789382 3.65405 0.75 3.22342 0.75 2.79279 0.75 2.37042 0.789382 1.95906 0.835234 1.40523 0.896966 0.959572 1.34262 0.90029 1.89672 0.856528 2.30576 0.819572 2.72571 0.819572 3.15385 0.819572 3.58198 0.856528 4.00193 0.900291 4.41097Z" stroke="#4147D5" fill="#D7E0FF"/><path d="M0.900291 12.1033C0.959572 12.6574 1.40523 13.103 1.95906 13.1648 2.37042 13.2106 2.79279 13.25 3.22342 13.25 3.65405 13.25 4.07642 13.2106 4.48778 13.1648 5.04161 13.103 5.48727 12.6574 5.54655 12.1033 5.59031 11.6943 5.62727 11.2743 5.62727 10.8462 5.62727 10.418 5.59031 9.99808 5.54655 9.58904 5.48727 9.03495 5.04161 8.58929 4.48778 8.52756 4.07642 8.4817 3.65405 8.44232 3.22342 8.44232 2.79279 8.44232 2.37042 8.4817 1.95906 8.52756 1.40523 8.58929 0.959572 9.03495 0.90029 9.58904 0.856528 9.99808 0.819572 10.418 0.819572 10.8462 0.819572 11.2743 0.856528 11.6943 0.900291 12.1033Z" stroke="#4147D5" fill="#D7E0FF"/><path d="M8.45345 12.1033C8.51273 12.6574 8.95839 13.103 9.51222 13.1648 9.92358 13.2106 10.346 13.25 10.7766 13.25 11.2072 13.25 11.6296 13.2106 12.0409 13.1648 12.5948 13.103 13.0404 12.6574 13.0997 12.1033 13.1435 11.6943 13.1804 11.2743 13.1804 10.8462 13.1804 10.418 13.1435 9.99808 13.0997 9.58904 13.0404 9.03495 12.5948 8.58929 12.0409 8.52756 11.6296 8.4817 11.2072 8.44232 10.7766 8.44232 10.346 8.44232 9.92358 8.4817 9.51222 8.52756 8.95839 8.58929 8.51273 9.03495 8.45345 9.58904 8.40969 9.99808 8.37273 10.418 8.37273 10.8462 8.37273 11.2743 8.40969 11.6943 8.45345 12.1033Z" stroke="#4147D5" fill="#D7E0FF"/></svg>